<?xml version="1.0" standalone="no"?>
<!DOCTYPE svg PUBLIC "-//W3C//DTD SVG 1.1//EN" "http://www.w3.org/Graphics/SVG/1.1/DTD/svg11.dtd" >
<svg xmlns="http://www.w3.org/2000/svg" xmlns:xlink="http://www.w3.org/1999/xlink" version="1.1">
<metadata>
Created by FontForge 20170731 at Sat Feb 26 19:05:45 2011
 By Aleksey,,,
(c) 2011 chung deh tien 347 547 2413 have a good day!
</metadata>
<defs>
<font id="GRENDELBOLD" horiz-adv-x="382" >
  <font-face 
    font-family="GRENDEL"
    font-weight="700"
    font-stretch="normal"
    units-per-em="1000"
    panose-1="0 0 7 0 0 0 0 0 0 0"
    ascent="800"
    descent="-200"
    x-height="585"
    cap-height="798"
    bbox="-242 -391 1690 1172"
    underline-thickness="20"
    underline-position="-163"
    unicode-range="U+0020-FB02"
  />
<missing-glyph horiz-adv-x="500" 
d="M63 0v800h375v-800h-375zM125 63h250v675h-250v-675z" />
    <glyph glyph-name=".notdef" horiz-adv-x="500" 
d="M63 0v800h375v-800h-375zM125 63h250v675h-250v-675z" />
    <glyph glyph-name="glyph1" horiz-adv-x="0" 
 />
    <glyph glyph-name="glyph2" 
 />
    <glyph glyph-name="space" unicode=" " 
 />
    <glyph glyph-name="exclam" unicode="!" horiz-adv-x="190" 
d="M91 229q12 0 23 10.5t11 22.5q14 135 37 305q18 134 18 145q0 37 -26.5 63t-63.5 26t-63 -26t-26 -63q0 -11 18 -143q22 -168 36 -304q0 -12 11.5 -24t24.5 -12zM174 71q0 -34 -24.5 -58.5t-59.5 -24.5q-34 0 -58.5 24.5t-24.5 58.5q0 35 24.5 59.5t58.5 24.5
q35 0 59.5 -24.5t24.5 -59.5z" />
    <glyph glyph-name="quotedbl" unicode="&#x22;" horiz-adv-x="449" 
d="M190 720q-4 36 -31 61t-65 25q-39 0 -67.5 -28.5t-28.5 -68.5q0 -36 24 -63t60 -32v-1q2 -5 2 -11q0 -36 -63 -56q-10 -2 -11 -16q1 -13 20 -11q72 17 117.5 64.5t45.5 107.5q0 14 -3 29zM436 720q-4 36 -31.5 61t-64.5 25q-40 0 -68 -28.5t-28 -68.5q0 -36 24 -63
t59 -32q1 0 1 -1q2 -5 2 -11q0 -36 -63 -56q-11 -2 -11 -16q1 -13 20 -11q72 17 117.5 64.5t45.5 107.5q0 14 -3 29z" />
    <glyph glyph-name="numbersign" unicode="#" horiz-adv-x="311" 
d="M293 669q17 0 18 -7q1 -1 1 0v63q0 1 -1 0q-2 -10 -18 -10h-66v66q0 17 7 18q1 1 0 1h-64q-1 0 0 -1q11 -1 11 -18v-66h-49v66q0 17 7 18q1 1 0 1h-64q-1 0 0 -1q10 -1 10 -18v-66h-66q-17 0 -18 7q0 1 -1 0v-64q1 0 1 1q2 10 18 10h66v-49h-66q-17 0 -18 7q0 1 -1 0v-64
q1 -1 1 0q2 11 18 11h66v-67q0 -16 -7 -18q-1 0 0 -1h64q1 1 0 1q-10 2 -10 18v67h49v-67q0 -16 -7 -18q-1 0 -1 -1h64q1 1 0 1q-10 2 -10 18v67h66q17 0 18 -7l1 -1v64q0 1 -1 0q-2 -10 -18 -10h-66v49h66zM181 620h-49v49h49v-49z" />
    <glyph glyph-name="dollar" unicode="$" horiz-adv-x="435" 
d="M229 614v167q37 -6 65 -24q60 -41 75 -92q8 -3 9 5v115q-78 23 -149 24v81h-27v-82q-123 -10 -149 -105q-7 -26 -7 -47q0 -93 156 -143v-213q-47 1 -81 27t-42 67q0 3 -3 3t-3 -3v-120h129v-57h27v57h9q52 0 102 31q66 41 74 114q1 10 1 20q0 71 -61 117q-39 29 -125 58z
M202 783v-158q-84 37 -84 92q0 32 27 50q23 16 57 16zM323 370q-21 -57 -94 -68v203q100 -36 100 -104q0 -15 -6 -31z" />
    <glyph glyph-name="percent" unicode="%" horiz-adv-x="866" 
d="M637 354q-104 0 -156 -54q-47 -48 -47 -131q0 -184 203 -184t203 184q0 83 -46 131q-53 54 -157 54zM669 11q-10 -3 -20 -3q-54 0 -84 72q-23 55 -23 120q0 127 83 127q38 0 68 -40t37 -101q3 -23 3 -45q0 -113 -64 -130zM816 728q2 1 3 3l-59 47q-4 3 -15 3.5t-15 4.5
v-1h-3q-133 -28 -268 -28q-116 0 -206 23q-39 11 -80 11q-104 0 -156 -55q-46 -48 -46 -131q0 -184 202 -184q203 0 203 185q0 61 -26 104q32 -3 66 -3q124 0 258 41q-9 -9 -18 -21q-2 -3 -497 -620q-46 -56 -78 -56q-8 0 -17 3q-3 -1 -4 -3l59 -47q11 -8 23 -8q34 0 81 59
q2 3 498 620q45 56 77 56q9 0 18 -3zM205 446q-10 -3 -19 -3q-55 0 -86 73q-23 56 -23 121q0 128 84 128q39 0 69 -40t37 -102q3 -24 3 -46q0 -113 -65 -131z" />
    <glyph glyph-name="ampersand" unicode="&#x26;" horiz-adv-x="1482" 
d="M1564 -72q-63 -33 -97 -45q-66 -23 -138 -23q-107 0 -242 49q-231 85 -431 235q20 18 103 103q35 38 70 75q43 40 80 47q5 1 6 6q0 4 -5 4h-278q0 -60 -7 -88q-11 -44 -50 -90q-366 303 -377 429q-5 58 21 93q30 41 98 41q54 0 89 -33q37 -36 35 -93q-3 -61 -101 -80
q-5 -1 -5 -5t4 -5h243v66v0q0 83 -57 132q-64 54 -191 54t-191 -54q-57 -49 -56 -132q0 -61 50 -143q-162 -88 -162 -225q0 -41 16 -84q60 -170 258 -170q88 0 201 35q24 7 100 39q203 -138 372 -210q169 -56 330 -56q219 0 336 114zM165 173q-75 103 -75 178q0 67 58 104
q110 -181 359 -361q-70 -37 -138 -37q-119 0 -204 116z" />
    <glyph glyph-name="quotesingle" unicode="'" horiz-adv-x="293" 
d="M235 717q-4 36 -31.5 61t-65.5 25q-40 0 -68.5 -28.5t-28.5 -68.5q0 -37 24 -64t60 -32q0 -1 1 -1q2 -5 2 -11q0 -37 -64 -57q-10 -2 -11 -16q1 -13 20 -11q73 17 119 65t46 109q0 14 -3 29z" />
    <glyph glyph-name="parenleft" unicode="(" horiz-adv-x="197" 
d="M82 414q0 127 36 239q34 108 95 179h-83q-161 -173 -161 -418t161 -418h83q-61 71 -95 179q-36 112 -36 239z" />
    <glyph glyph-name="parenright" unicode=")" horiz-adv-x="248" 
d="M123 413q0 127 -35 239q-34 108 -94 179h81q160 -173 160 -418t-160 -418h-81q60 71 94 179q35 112 35 239z" />
    <glyph glyph-name="asterisk" unicode="*" horiz-adv-x="330" 
d="M229 838l-56 60q-1 0 -2 -2q14 -21 6 -35q-14 -22 -54 -42q-2 4 -5 6q11 21 25 85q3 15 -6 21t-18 3l-74 -37q0 -1 2 -2q24 7 35 -5q18 -18 26 -63q-4 -1 -7 -4q-18 17 -75 49q-6 3 -12 3q-19 0 -18 -20l15 -81q0 -1 2 -1q1 1 1 2q0 25 14 33q23 12 70 7v-1q0 -2 1 -5
q-23 -11 -73 -55q-8 -7 -8 -16q0 -14 14 -18l81 -13q1 1 0 3q-24 8 -26 24q-3 26 18 69q2 -1 5 -1q4 -26 32 -86q6 -13 17 -13t17 8l36 73q-1 2 -3 1q-15 -20 -30 -17q-26 4 -61 36q3 2 4 5q24 -5 90 -1q20 1 20 19q0 6 -3 11z" />
    <glyph glyph-name="plus" unicode="+" horiz-adv-x="552" 
d="M572 459q-3 -19 -34 -19h-213v213q0 31 14 34q2 0 0 1h-120q-1 -1 1 -1q19 -4 19 -34v-213h-213q-32 0 -34 13q-1 3 -2 0v-119q1 -2 2 0q3 19 34 19h213v-213q0 -32 -14 -34q-1 -1 0 -2h120q1 1 -1 2q-19 3 -19 34v213h213q32 0 34 -13q1 -2 2 0v119q-1 2 -2 0z" />
    <glyph glyph-name="comma" unicode="," horiz-adv-x="233" 
d="M34 -94zM231 97q-4 36 -30.5 60t-62.5 24q-39 0 -66.5 -27.5t-27.5 -66.5q0 -35 23.5 -61.5t57.5 -30.5q0 -1 1 -1q2 -5 2 -11q0 -35 -61 -54q-11 -2 -11 -15q1 -13 19 -12q70 17 114.5 63t44.5 105q0 13 -3 27z" />
    <glyph glyph-name="period" unicode="." horiz-adv-x="163" 
d="M175 85q0 -37 -26 -63t-62 -26q-37 0 -63 26t-26 63q0 36 26 62t63 26q36 0 62 -26t26 -62z" />
    <glyph glyph-name="slash" unicode="/" horiz-adv-x="749" 
d="M608 774q-2 -4 -526 -656q-47 -59 -81 -59q-10 0 -19 3q-3 0 -3 -3l62 -50q11 -8 24 -8q36 0 86 62q2 3 525 655q48 60 82 60q9 0 19 -4q2 1 3 3l-62 50q-6 5 -19 5q-45 0 -91 -58z" />
    <glyph glyph-name="zero" unicode="0" horiz-adv-x="632" 
d="M322 799q-146 0 -230.5 -105.5t-84.5 -275.5q0 -175 83 -294q89 -128 232 -128q151 0 235 107q81 102 81 274t-86 294q-90 128 -230 128zM373 50q-10 -2 -19 -2q-65 0 -110.5 76.5t-64.5 214.5q-10 71 -10 137q0 108 26 176q28 74 80 82q9 2 19 2q131 0 172 -293
q11 -79 11 -149q0 -226 -104 -244z" />
    <glyph glyph-name="one" unicode="1" horiz-adv-x="376" 
d="M285 801h-57l-210 -100q-4 0 -4 -4q0 -5 5 -5q77 -7 97 -29t20 -93l-1 -350q0 -85 -7 -119q-17 -81 -74 -92q-5 -1 -5 -5t4 -4h349q4 0 4 4t-5 5q-79 15 -103 73q-13 33 -13 121v598z" />
    <glyph glyph-name="two" unicode="2" horiz-adv-x="559" 
d="M571 224q0 4 -4 4t-5 -5q-15 -80 -73 -103q-33 -14 -120 -14h-194q-18 27 -18 61q0 73 83 112q61 23 191 87q62 37 98 97t34 126q-4 90 -59.5 145t-153.5 64q-27 2 -53 2q-73 0 -142 -19q-44 -15 -87 -29v0q-12 -6 -12 -17l2 -158q2 -12 13 -8q76 147 195 147
q43 0 77.5 -22t49.5 -59q20 -48 20 -88q0 -83 -100 -154l-186 -122q-100 -82 -100 -194q0 -27 5 -55l4 -22h535v224z" />
    <glyph glyph-name="three" unicode="3" horiz-adv-x="678" 
d="M284 397q82 0 127 -57q38 -47 38 -115q0 -69 -49 -121t-119 -52q-56 0 -100 40q-49 46 -73 135q-9 9 -16 0l-77 -138q-6 -10 2 -21v0q22 -21 102 -44q91 -26 178 -26q103 0 168 39q133 80 133 205q0 37 -13 76q-16 51 -62 86q-54 42 -129 44q73 31 114 82t41 109
q0 150 -194 165q-19 1 -37 1q-67 0 -130 -20q-41 -13 -81 -27q-11 -2 -11 -15l1 -137q2 -10 7 -14q62 140 174 140q65 0 104 -44q26 -30 26 -84q0 -56 -37 -96q-45 -50 -137 -64q-33 -5 -60 -17t-27 -24q0 -3 1 -5z" />
    <glyph glyph-name="four" unicode="4" horiz-adv-x="638" 
d="M692 385q-2 2 -3 4q-4 0 -7 -5q-34 -65 -83 -91q-37 -20 -97 -24v449q8 55 86 69q5 1 4 5t-6 4h-277q-6 -17 -292 -528l17 -87h319q-3 -157 -80 -172q-5 -1 -5 -5t4 -4h348q4 0 4 4t-5 5q-74 14 -99 65q-16 32 -17 107h119zM321 677l33 -1v-408h-258z" />
    <glyph glyph-name="five" unicode="5" horiz-adv-x="622" 
d="M485 26q150 92 150 237q0 44 -15 89q-19 60 -67 101q-59 50 -144 50h-251l38 189l171 -1q82 0 111 -11q51 -19 51 -84q0 -11 -2 -23q0 -5 4 -5t6 4l66 226h-470l-62 -355h230q82 -8 127 -72q38 -54 38 -127q0 -75 -47 -126q-48 -54 -123 -54q-64 0 -114 44
q-58 50 -82 144q-8 9 -15 0l-74 -137q-7 -12 2 -20q28 -28 117 -63q111 -44 207 -44q87 0 148 38z" />
    <glyph glyph-name="six" unicode="6" horiz-adv-x="583" 
d="M327 551q-98 0 -177 -52q4 109 86 195q50 51 119 51q103 0 165 -127q3 -5 6 -5q9 0 11 12l-5 138q0 7 -12 14q-38 11 -76 21q-59 14 -116 11q-132 -5 -217.5 -90t-105.5 -222q-9 -64 -9 -120q0 -198 109 -299q89 -82 222 -82q127 0 216.5 81t89.5 196q0 116 -89.5 197
t-216.5 81zM340 56q-61 0 -111 55.5t-64 138.5q-3 23 -3 47q0 73 35 130q41 66 111 66q61 0 111 -55.5t63 -138.5q4 -24 4 -47q0 -73 -35 -130q-42 -66 -111 -66z" />
    <glyph glyph-name="seven" unicode="7" horiz-adv-x="547" 
d="M444 7q-85 17 -101 70q-6 23 -6 61q0 260 257 660h-518l-56 -224l4 -4q4 0 6 5q35 80 99 103q36 14 124 14h190q-16 -37 -85 -144q-73 -112 -111 -197q-61 -132 -83 -277q-6 -41 -3 -76h284q5 0 5 4q-1 5 -6 5z" />
    <glyph glyph-name="eight" unicode="8" horiz-adv-x="555" 
d="M122 456q-153 -71 -145 -225q7 -120 109 -185q82 -53 188 -53q100 0 186 52q110 69 110 192q0 17 -2 35q-9 74 -53 121q-29 31 -90 63q40 36 50 48q23 30 30 77q2 16 2 31q0 95 -88 148q-69 41 -145 39q-90 -1 -155 -44q-79 -52 -79 -143q0 -15 2 -31q10 -72 80 -125z
M371 678q12 -27 12 -55q0 -90 -88 -121q-47 18 -65 29q-37 20 -54 47q-18 31 -18 68q0 36 17 65.5t46 39.5q18 7 37 7q79 0 113 -80zM221 382q88 -35 109 -48q61 -38 79 -102q7 -22 7 -45q0 -64 -42.5 -110.5t-103.5 -43.5q-153 7 -156 182q2 37 13 68q26 73 94 99z" />
    <glyph glyph-name="nine" unicode="9" horiz-adv-x="628" 
d="M302 256q98 0 177 51q-4 -108 -86 -194q-49 -50 -118 -50q-103 0 -165 126q-2 5 -6 5q-8 0 -10 -12l4 -137q0 -7 12 -15l76 -20q59 -14 116 -11q131 5 216 90t105 221q9 63 9 119q0 197 -108 298q-89 82 -222 82q-126 0 -215 -81t-89 -196q0 -114 89 -195t215 -81z
M290 749q61 0 110.5 -55.5t63.5 -138.5q3 -23 3 -46q0 -73 -35 -130q-41 -65 -110 -65q-61 0 -111 55t-63 138q-4 23 -4 46q0 73 36 130q41 66 110 66z" />
    <glyph glyph-name="colon" unicode=":" horiz-adv-x="162" 
d="M175 84q0 -35 -24.5 -59.5t-59.5 -24.5t-59.5 24.5t-24.5 59.5t24.5 59.5t59.5 24.5t59.5 -24.5t24.5 -59.5zM175 479q0 -35 -24.5 -59.5t-59.5 -24.5t-59.5 24.5t-24.5 59.5t24.5 59.5t59.5 24.5t59.5 -24.5t24.5 -59.5z" />
    <glyph glyph-name="semicolon" unicode=";" horiz-adv-x="241" 
d="M237 501q0 -36 -25.5 -62t-62.5 -26q-36 0 -62 26t-26 62q0 37 26 62.5t62 25.5q37 0 62.5 -25.5t25.5 -62.5zM234 97q-3 33 -28 56t-59 23q-36 0 -62 -26t-26 -62q0 -34 22 -58.5t54 -29.5h1q1 -5 1 -10q0 -34 -57 -52q-10 -1 -10 -14q1 -12 18 -11q66 16 107.5 59.5
t41.5 98.5q0 13 -3 26z" />
    <glyph glyph-name="less" unicode="&#x3c;" horiz-adv-x="278" 
d="M151 636q-76 -94 -162 -202q-7 -12 -7 -26v-2v-1q0 -14 7 -26q40 -46 162 -202q4 -5 12 -7q9 -2 15 1.5t8 13.5q2 9 -1 15q-40 84 -97 206q26 57 97 207q3 6 1 15q-2 10 -8 13.5t-15 1.5q-8 -2 -12 -7z" />
    <glyph glyph-name="equal" unicode="=" horiz-adv-x="778" 
d="M636 240q38 0 41 -16q1 -3 2 0v144q-1 2 -2 0q-3 -17 -15 -21q-6 -2 -26 -2h-616q-38 0 -41 15q-1 4 -2 1v-144q1 -2 2 0q3 17 15 21q6 2 26 2h616zM636 454q38 0 41 -15q1 -4 2 -1v144q-1 3 -2 0q-3 -17 -15 -21q-6 -2 -26 -2h-616q-38 0 -41 16q-1 3 -2 0v-144
q1 -2 2 1q3 16 15 20q6 2 26 2h616z" />
    <glyph glyph-name="greater" unicode="&#x3e;" horiz-adv-x="203" 
d="M23 626q76 -92 160 -198q7 -11 7 -25v-2v-1q0 -14 -7 -25q-39 -45 -160 -198q-9 -16 -26 -6q-6 4 -8 13q-1 9 2 15q38 82 94 202q-25 56 -94 203q-3 6 -2 15q2 9 8 13q17 10 26 -6z" />
    <glyph glyph-name="question" unicode="?" horiz-adv-x="552" 
d="M372 75q0 -34 -24.5 -58.5t-58.5 -24.5q-35 0 -59.5 24.5t-24.5 58.5t24.5 58.5t59.5 24.5q34 0 58.5 -24.5t24.5 -58.5zM275 802q-125 0 -203 -51q-83 -53 -87 -146q-2 -54 30 -94q34 -43 91 -43q14 0 29 3q36 7 59.5 37t23.5 69q0 11 -2 22q-7 31 -33.5 51t-56.5 20
q-9 0 -17 -2q-1 16 16 38q22 29 62 39q27 7 54 7q70 0 119.5 -40.5t49.5 -96.5q0 -51 -44 -95q-114 -117 -114 -248q0 -30 37 -30q40 0 40 32q2 24 13 46q26 53 91 89q132 73 132 196q0 93 -85 146q-80 51 -205 51z" />
    <glyph glyph-name="at" unicode="@" horiz-adv-x="726" 
d="M553 393q0 69 -5 97q-9 43 -35.5 68.5t-62.5 32.5q-22 4 -76 3q-77 -1 -177 -37v0q-6 -3 -5 -9v-78q2 -6 7 -1q78 86 150 86q52 0 72 -32q16 -26 15 -84h-63q-83 0 -127 -18q-70 -27 -76 -101q-4 -51 36.5 -89.5t101.5 -38.5q66 0 127 47q4 -19 33 -34.5t68 -14.5
q119 2 174 72q39 49 41 120q3 157 -108.5 269.5t-268.5 112.5q-158 0 -269 -111.5t-111 -268.5t111 -268.5t269 -111.5q101 0 187 49.5t137 132.5q-131 -132 -327 -128q-127 2 -217.5 99t-90.5 227q0 129 91 220t220 91t220 -91.5t88 -219.5q-2 -70 -32 -119
q-28 -44 -59 -44q-38 0 -38 72v100zM276 310q-2 9 -2 18q0 68 85 68q23 0 77 1v-104q-31 -33 -83 -33q-69 0 -77 50z" />
    <glyph glyph-name="A" unicode="A" horiz-adv-x="858" 
d="M896 9q-77 17 -127 84q-24 32 -71 131l-299 630l-286 -631q-38 -85 -62 -121q-53 -82 -111 -93q-5 -1 -5 -5t4 -4h312q4 0 4 4t-5 5q-77 15 -77 70q0 27 18 72h361q16 -47 16 -79q0 -54 -47 -63q-5 -1 -5 -5t4 -4h377q4 0 4 4t-5 5zM513 245h-282l140 304z" />
    <glyph glyph-name="B" unicode="B" horiz-adv-x="678" 
d="M152 746zM125 789zM582 462q2 1 3 3q71 59 78 143q7 85 -55 143q-70 65 -201 65q-63 0 -137 -16h-284q-4 -1 -4 -5t5 -5q86 -17 108 -82q11 -31 11 -133v-352q0 -86 -7 -121q-17 -82 -75 -93q-5 -1 -6 -5q0 -4 5 -5h291q64 -11 120 -11q128 0 213 60q95 68 95 190
q0 73 -39 132q-43 63 -121 92zM270 690q0 39 2 47q6 18 30 23.5t48 5.5q116 0 152 -115q10 -33 10 -62q0 -65 -51 -101q-47 -33 -126 -35l-65 -2v239zM510 71q-47 -34 -122 -34q-47 0 -81.5 13t-34.5 30l-1 308l75 1q73 2 117 -17q35 -15 67 -52q45 -52 45 -119
q0 -84 -65 -130z" />
    <glyph glyph-name="C" unicode="C" horiz-adv-x="706" 
d="M422 49q93 -3 183 32q102 40 114 104q1 5 5 5t5 -4v-187l-355 -1q-190 0 -299 121q-102 114 -102 292q0 177 117 292q97 96 275 105q27 2 54 2q142 0 306 -48v0q12 -6 12 -17v-162q-2 -12 -13 -8q-162 172 -359 172q-24 0 -51 -2q-156 -12 -156 -261q0 -52 8 -112
q17 -138 86 -227q71 -92 170 -96z" />
    <glyph glyph-name="D" unicode="D" horiz-adv-x="907" 
d="M466 816q-27 1 -52 1q-74 0 -159 -16h-2v-1h-268q-4 0 -4 -4t5 -5q85 -17 108 -82q11 -31 11 -132v-353q0 -86 -7 -121q-18 -82 -75 -93q-5 -1 -6 -5q0 -4 5 -5h454q173 0 296 121t123 288q0 166 -126 283q-123 113 -303 124zM527 66q-61 -18 -120 -18q-129 0 -129 77
v539q0 72 19.5 87t111.5 15q104 0 186 -89.5t101 -222.5q6 -44 6 -85q0 -116 -45 -196q-46 -83 -130 -107z" />
    <glyph glyph-name="E" unicode="E" horiz-adv-x="674" 
d="M671 180q-17 -85 -84 -108q-32 -11 -138 -11h-160q-20 28 -25 75q-2 21 -2 87v163h94q120 -1 170 -47l6 -6q4 0 4 5v157q0 5 -4 5l-6 -6q-50 -46 -170 -47l-94 -1v128q0 116 21 161h133q89 0 125 -7q85 -17 97 -75q1 -5 5 -5t5 4v145h-690q-4 0 -4 -4t5 -5
q89 -17 112 -81q11 -31 11 -133v-351q0 -86 -7 -120q-18 -82 -78 -93q-5 -1 -5 -5q-1 -4 4 -5h685v181q0 4 -5 4q-4 0 -5 -5z" />
    <glyph glyph-name="F" unicode="F" horiz-adv-x="647" 
d="M129 223q0 -87 -7 -122q-17 -82 -74 -93q-5 -1 -5 -5t4 -5h371q4 1 4 5t-5 5q-84 17 -106 82q-11 31 -11 133l-1 163h91q114 -1 161 -47q7 -6 6 -6q4 0 4 5v157q0 6 -4 6q1 0 -6 -7q-47 -46 -161 -46l-91 -1l1 129q0 116 20 161h127q85 0 119 -7q81 -17 92 -75q1 -5 5 -5
t4 4v146h-656q-4 -1 -4 -5t5 -5q84 -16 107 -81q10 -31 10 -133v-353z" />
    <glyph glyph-name="G" unicode="G" horiz-adv-x="792" 
d="M517 406q-4 -1 -4 -5t5 -5q88 -17 111 -81q11 -32 11 -134v-34q0 -38 -31 -66.5t-74 -35.5q-28 -4 -55 -4q-157 0 -254 133q-88 119 -88 280q0 129 62 209q70 90 201 90q108 0 198 -59q45 -30 143 -127q12 -4 14 8v163q0 12 -13 18v0l-120 34q-101 22 -203 20
q-233 -6 -349 -124q-103 -105 -103 -288q0 -186 100 -291q114 -120 352 -120q284 0 397 116q5 90 0 303h-300zM817 406z" />
    <glyph glyph-name="H" unicode="H" horiz-adv-x="895" 
d="M931 9q-85 16 -108 81q-11 31 -11 133v352q0 86 8 121q17 82 74 93q5 1 5 5t-4 5h-376q-4 -1 -4 -5t5 -5q85 -16 108 -81q10 -31 10 -133v-118h-395v118q0 86 8 121q17 82 74 93q5 1 5 5q1 4 -4 5h-376q-4 -1 -4 -5t5 -5q85 -16 108 -81q10 -31 10 -133v-352
q0 -86 -7 -121q-17 -82 -75 -93q-5 -1 -5 -5q0 -5 4 -5h377q4 0 4 5q0 4 -5 5q-85 16 -108 81q-11 31 -11 133v140h395v-140q0 -86 -7 -121q-17 -82 -75 -93q-5 -1 -5 -5q0 -5 4 -5h377q4 0 4 5q0 4 -5 5z" />
    <glyph glyph-name="I" unicode="I" horiz-adv-x="407" 
d="M300 574q0 86 8 121q17 82 75 93q5 1 5 5t-4 5h-378q-4 -1 -4 -5t5 -5q85 -16 108 -81q11 -31 11 -133v-352q0 -86 -7 -121q-18 -82 -75 -93q-5 -1 -6 -5q0 -4 5 -5h377q5 1 4 5q0 4 -5 5q-85 16 -108 81q-11 31 -11 133v352z" />
    <glyph glyph-name="J" unicode="J" horiz-adv-x="345" 
d="M111 90q0 -288 -206 -364q-15 -3 -17 -22q1 -18 19 -14q234 49 328 290q39 101 47 231v369q0 84 7 118q17 80 73 91q5 1 5 5t-4 4h-368q-5 0 -5 -4q1 -4 5 -5q84 -16 106 -79q10 -31 10 -130v-490z" />
    <glyph glyph-name="K" unicode="K" horiz-adv-x="816" 
d="M-13 725zM874 10q-57 11 -91 42q-15 14 -45 60l-261 398l52 65q69 87 104 122q82 81 149 92q6 1 9 5q4 5 0 5h-302q-5 0 -8 -5q-3 -4 1 -5q52 -11 52 -47q0 -28 -34 -77q-12 -17 -70 -90l-155 -193v194q0 86 8 121q17 82 75 93q5 1 5 5t-5 5h-377q-4 -1 -4 -5t5 -5
q85 -16 108 -81q11 -31 11 -133v-352q0 -86 -8 -121q-17 -82 -74 -93q-5 -1 -6 -5q0 -5 5 -5h377q4 0 4 5q0 4 -5 5q-85 16 -108 81q-11 31 -11 133v34l99 123l191 -274q44 -64 97 -88q41 -19 103 -19h109q5 1 5 5t-5 5z" />
    <glyph glyph-name="L" unicode="L" horiz-adv-x="644" 
d="M-20 717zM664 179q-16 -85 -81 -108q-31 -11 -133 -11h-154q-20 28 -25 75q-2 21 -2 88v352q0 86 7 121q17 82 75 93q5 1 5 5t-4 5h-376q-4 -1 -4 -5t5 -5q85 -16 108 -81q11 -31 11 -133v-352q0 -86 -8 -121q-17 -82 -74 -93q-5 -1 -6 -5q0 -4 5 -5h661v181q-1 5 -5 4
q-4 0 -5 -5z" />
    <glyph glyph-name="M" unicode="M" horiz-adv-x="1036" 
d="M1072 9q-85 16 -108 81q-11 31 -11 133v353q0 86 8 121q17 81 74 92q5 1 6 5q0 5 -5 5h-265l-264 -535l-279 534v0h-311q-4 0 -4 -4q0 -5 5 -6q85 -16 108 -81q10 -30 10 -132v-352q0 -86 -7 -121q-17 -82 -74 -93q-6 -1 -6 -5t5 -5h314q5 1 4 5q0 4 -5 5q-85 16 -107 81
q-11 30 -11 133v392l324 -613q1 -1 3 1l303 610q1 -41 0 -390q0 -86 -7 -121q-17 -82 -75 -93q-5 -1 -5 -5t4 -5h377q4 1 4 5t-5 5z" />
    <glyph glyph-name="N" unicode="N" horiz-adv-x="936" 
d="M942 799h-311q-4 -1 -4 -5t5 -5q76 -18 104 -80q15 -34 25 -130l30 -311q1 -2 -499 436q-28 26 -28 49q0 14 11 25q13 8 28 11q5 1 6 5q0 4 -5 5h-311q-4 -1 -4 -5t5 -5q85 -16 108 -81q11 -31 11 -133v-351q0 -87 -8 -122q-17 -81 -74 -92q-6 -1 -6 -5q0 -5 5 -5h311
q4 0 4 5q0 4 -5 5q-60 11 -87 45q-21 26 -29 76l-12 92l-23 332l659 -570q9 -6 11 1v589q0 86 8 121q17 82 74 93q5 1 6 5q0 4 -5 5z" />
    <glyph glyph-name="O" unicode="O" horiz-adv-x="922" 
d="M471 809q-230 0 -345 -119q-102 -106 -102 -288q0 -184 98 -287q113 -119 349 -119q235 0 348 119q98 103 98 287q0 182 -102 288q-115 119 -344 119zM558 51q-27 -6 -53 -6q-113 0 -195 102q-74 93 -93 226q-8 51 -8 98q0 125 50 196q58 85 180 85q104 0 185.5 -88
t100.5 -224q8 -53 8 -101q0 -113 -40 -186q-45 -82 -135 -102z" />
    <glyph glyph-name="P" unicode="P" horiz-adv-x="703" 
d="M39 2zM634 407q73 74 79 171q7 99 -59 165q-74 73 -213 73q-63 0 -137 -16h-294q-4 -1 -4 -5t5 -5q86 -16 108 -82q11 -31 11 -133v-353q0 -87 -7 -122q-17 -82 -75 -93q-5 -1 -5 -5q-1 -4 4 -5h377q4 1 4 5t-5 5q-86 17 -108 82q-11 31 -11 133v82q38 -10 76 -10
q144 0 254 113zM304 365v320q0 40 3 49q5 18 29 24t47 6q126 0 164 -139q12 -43 12 -82q0 -88 -53.5 -139.5t-129.5 -51.5q-37 0 -72 13z" />
    <glyph glyph-name="Q" unicode="Q" horiz-adv-x="1275" 
d="M710 -244q160 -51 313 -51q231 0 343 128l-25 14q-120 -66 -249 -66q-128 0 -272 60q-72 31 -297 148q190 21 282 137q81 102 81 271q0 184 -103 291q-115 121 -346 121t-346 -121q-103 -107 -103 -291q0 -119 41 -210q47 -103 139 -152zM405 752q105 0 187 -89.5
t101 -227.5q8 -53 8 -102q0 -115 -41 -190q-45 -83 -135 -103q-27 -6 -54 -6q-113 0 -195 104q-75 94 -94 228q-8 53 -8 101q0 126 50 199q59 86 181 86z" />
    <glyph glyph-name="R" unicode="R" horiz-adv-x="872" 
d="M900 9q-50 10 -85 41q-19 16 -51 60l-224 301q19 12 57 38q81 69 81 166q0 84 -65 139q-73 62 -202 62q-67 0 -144 -17h-293q-4 0 -4 -5q0 -4 5 -5q86 -16 108 -81q11 -32 11 -133l-2 -352q-1 -88 -8 -122q-17 -82 -74 -93q-5 -1 -6 -5q0 -4 5 -4h376q4 0 4 4t-5 5
q-86 17 -109 82q-11 33 -10 133l2 134q87 -4 124 0l180 -252q46 -65 95 -89q37 -18 97 -18h137q4 1 5 5q0 5 -5 6zM267 411l1 296q25 53 92 56q114 -6 150 -120q12 -38 12 -73q0 -78 -56 -126q-52 -44 -127 -44q-37 0 -72 11z" />
    <glyph glyph-name="S" unicode="S" horiz-adv-x="560" 
d="M420 472l-226 96q-78 36 -78 91q0 25 17 55q27 49 113 49q72 0 127 -33q101 -60 123 -134q12 -4 14 8v176q-120 36 -230 36q-224 0 -268 -161q-12 -43 -12 -80q0 -120 139 -185q87 -33 208 -85q80 -44 80 -115q0 -18 -5 -38q-15 -54 -63 -83q-43 -25 -102 -25
q-76 0 -135 38t-70 98q-1 6 -5 6q-5 0 -5 -5v-184l267 -1q78 0 150 49q93 62 106 174q2 16 2 32q0 78 -44 139q-39 55 -103 82z" />
    <glyph glyph-name="T" unicode="T" horiz-adv-x="735" 
d="M117 801q-30 0 -70 -13v0q-13 -6 -13 -18v-161q2 -12 14 -8q38 125 161 138h95v-517q0 -87 -7 -122q-17 -82 -75 -93q-5 -1 -5 -5q0 -5 4 -5h379q4 0 4 5q0 4 -5 5q-86 16 -109 81q-10 31 -10 134v517h88q123 -13 162 -138q11 -4 13 8v161q0 12 -12 18v0q-41 13 -70 13
h-544z" />
    <glyph glyph-name="U" unicode="U" horiz-adv-x="811" 
d="M81 204q0 -85 93.5 -144.5t225.5 -59.5t225.5 59.5t93.5 144.5v372q0 86 8 121q17 82 75 93q5 1 5 5t-4 4h-315q-4 0 -4 -4t5 -5q86 -17 108 -82q11 -31 11 -132v-373q0 -54 -53 -93t-126 -39q-72 0 -123.5 38.5t-51.5 93.5v373q0 86 8 121q17 82 74 93q5 1 6 5q0 4 -5 4
h-376q-4 0 -4 -4t5 -5q85 -17 108 -82q11 -31 11 -132v-372z" />
    <glyph glyph-name="V" unicode="V" horiz-adv-x="854" 
d="M-77 747zM902 797h-314q-5 -1 -4 -5q0 -4 5 -5q78 -15 78 -70q0 -26 -18 -69q-16 -38 -32 -77l-139 -352l-168 361q-43 91 -43 142q0 56 49 65q5 1 5 5t-4 5h-381q-4 -1 -4 -5t5 -5q78 -17 128 -84q25 -33 72 -132l291 -614q3 -6 9 -7q7 0 11 7l279 614q38 86 62 122
q53 83 112 94q5 1 5 5t-4 5z" />
    <glyph glyph-name="W" unicode="W" horiz-adv-x="1126" 
d="M1146 799h-313q-4 0 -4 -4q0 -5 5 -6q85 -16 85 -77q0 -29 -41 -137l-134 -349l-127 358q-20 77 -20 116q0 78 60 89q5 1 6 6q1 4 -4 4h-368q-5 0 -5 -4q-1 -4 4 -6q75 -17 115 -83q23 -39 48 -132l12 -44l-116 -307l-189 361q-43 81 -43 139q0 57 49 66q5 1 5 6
q0 4 -4 4h-379q-4 0 -4 -4t5 -6q77 -17 127 -83q25 -33 72 -132l294 -620q3 -4 5 -4q4 0 6 4v0l204 462l181 -462q3 -4 6 -4t5 4l282 621q39 85 62 121q54 82 112 93q5 1 5 6q0 4 -4 4z" />
    <glyph glyph-name="X" unicode="X" horiz-adv-x="859" 
d="M919 9q-105 20 -193 128q-11 14 -215 296l166 227q88 108 193 128q5 1 6 5q0 4 -5 5h-345q-4 -1 -4 -5t5 -5q28 -5 44.5 -26t16.5 -48q0 -20 -10 -39q-4 -6 -120 -168l-119 167q-10 18 -10 39q0 27 16.5 48t43.5 26q5 1 6 5q0 4 -5 5h-430q-4 -1 -4 -5t5 -5
q106 -20 194 -128q10 -13 207 -286l-171 -237q-88 -108 -194 -128q-5 -1 -5 -5q0 -5 4 -5h345q5 0 5 5q-1 4 -6 5q-27 5 -43.5 26t-16.5 48q0 20 10 38.5t125 178.5l126 -177q11 -18 11 -39q0 -27 -17 -48t-44 -26q-5 -1 -5 -5t4 -5h430q5 1 5 5q-1 4 -6 5z" />
    <glyph glyph-name="Y" unicode="Y" horiz-adv-x="872" 
d="M902 798h-345q-4 -1 -4 -5t5 -5q28 -5 44.5 -26t16.5 -48q0 -21 -10 -39q-2 -3 -121 -277l-160 276q-11 18 -11 39q0 26 17 47.5t44 26.5q5 1 5 5t-4 4h-430q-4 0 -4 -4t5 -5q106 -20 193 -128q35 -60 70 -121q78 -134 138 -221q1 -53 0 -98q-1 -91 -7 -120
q-17 -81 -74 -92q-5 -1 -5 -6q0 -4 4 -4h375q4 0 4 4q0 5 -5 6q-85 16 -107 80q-11 31 -11 132v137q54 82 123 200l60 104q88 108 193 128q5 1 5 5t-4 5z" />
    <glyph glyph-name="Z" unicode="Z" horiz-adv-x="702" 
d="M18 800h669l-368 -579q-41 -55 -41 -94q0 -41 59 -42h6q268 -8 290 111q2 7 7 7q6 0 7 -6v-197h-659q-14 0 -5 14l380 583q43 60 43 90q0 29 -45 29h-38q-112 0 -165 -11q-111 -23 -126 -101q-1 -7 -7 -7q-5 0 -7 5v198z" />
    <glyph glyph-name="bracketleft" unicode="[" horiz-adv-x="398" 
d="M353 692h-308q-2 -1 1 -2q22 -4 22 -40v-609q0 -37 -15 -40q-4 -1 -1 -2h278v0h16q3 2 0 2q-16 3 -16 39v14h-159v584h159v13q0 35 23 39q3 1 0 2z" />
    <glyph glyph-name="backslash" unicode="\" horiz-adv-x="332" 
 />
    <glyph glyph-name="bracketright" unicode="]" horiz-adv-x="351" 
d="M29 695h307q3 -1 0 -2q-22 -4 -22 -40v-608q0 -38 15 -41q4 0 1 -2l-278 1v0h-16q-3 1 0 1q16 3 16 39v14h159v584h-159v14q0 34 -23 38q-3 1 0 2z" />
    <glyph glyph-name="asciicircum" unicode="^" horiz-adv-x="434" 
d="M361 720q-73 64 -157 135q-9 6 -20 7h-1h-1q-11 -1 -21 -7q-35 -32 -157 -135q-12 -8 -4 -22t22 -5q65 32 161 80q44 -22 161 -80q13 -9 21 5t-4 22z" />
    <glyph glyph-name="underscore" unicode="_" horiz-adv-x="759" 
d="M625 0q38 0 41 -16q1 -3 2 0v144q-1 2 -2 -1q-3 -16 -16 -20q-5 -2 -25 -2h-587q-38 0 -41 15q-1 4 -2 1v-144q1 -3 2 0q3 17 15 21q6 2 26 2h587z" />
    <glyph glyph-name="grave" unicode="`" horiz-adv-x="362" 
d="M294 699q10 17 -5 26q-92 76 -198 159q-11 7 -25 7q-21 0 -35.5 -14.5t-14.5 -34.5q0 -28 24 -43q53 -24 227 -106q5 -3 14 -2q10 2 13 8z" />
    <glyph glyph-name="a" unicode="a" horiz-adv-x="719" 
d="M627 5q0 -4 -5 -5h-131q-110 0 -124 70q-89 -70 -172 -70t-144 52q-65 56 -58 137q8 108 111 149q64 25 140 25q87 0 125 -22q1 69 -1 83q-4 42 -26.5 71t-67.5 37q-17 3 -21 3q-103 0 -217 -127q-8 -7 -11 1v116q-1 8 8 13q146 53 245 54q78 1 111 -5q118 -22 142 -148
q8 -40 8 -142v-90q0 -101 8 -131q16 -62 74 -66q6 -1 6 -5zM259 100q66 0 109 49q1 14 0 114q0 20 -42 31q-30 8 -57 8q-124 0 -124 -102q0 -7 3 -25q6 -37 40 -58q30 -17 71 -17z" />
    <glyph glyph-name="b" unicode="b" horiz-adv-x="737" 
d="M609 474q-78 112 -216 113q-64 0 -116 -21l-1 232h-289q-4 0 -4 -4t5 -5q85 -16 107 -80q10 -29 10 -133v-382q0 -78 -11 -125q107 -54 227 -69q29 -4 56 -4q99 0 164 49q92 69 109 208q4 31 4 59q0 97 -45 162zM479 279q0 -30 -4 -80q-6 -73 -38 -112q-28 -33 -70 -33
q-68 0 -89 77l-1 376q30 28 78 28q11 0 20 -3q71 -18 91 -83q13 -41 13 -170z" />
    <glyph glyph-name="c" unicode="c" horiz-adv-x="611" 
d="M147 396q0 -9 2.5 -62.5t2.5 -65.5q0 -101 53 -162q49 -57 123 -57q84 0 151 75l46 -1q-72 -149 -272 -138q-152 8 -222 104q-54 75 -52 223q2 146 76 223q80 81 233 72q114 -6 224 -71q9 -5 8 -15l-8 -131q-2 -5 -6 -7t-6 2q-38 78 -96.5 123.5t-122.5 45.5
q-135 0 -134 -158z" />
    <glyph glyph-name="d" unicode="d" horiz-adv-x="755" 
d="M673 10q-85 16 -107 80q-11 31 -11 131v357q0 82 8 120q17 82 74 93q5 1 5 5t-4 5h-375q-4 -1 -4 -5t5 -5q85 -17 106 -80q12 -36 12 -131v-5q-39 11 -74 12q-151 3 -221 -65q-83 -79 -83 -221q0 -174 106 -242q91 -59 269 -59h295q4 1 4 5t-5 5zM178 297q-6 49 -6 81
q0 175 134 166q45 -3 76 -30v-398q-7 -45 -50 -45q-67 0 -111 85q-33 62 -43 141z" />
    <glyph glyph-name="e" unicode="e" horiz-adv-x="653" 
d="M517 258l-350 -1q14 -101 58 -155q33 -39 98 -45q123 -5 183 80l46 1q-64 -153 -264 -153q-147 0 -221 84q-71 80 -71 228q0 147 71 227q76 85 221 85q137 0 213.5 -75t78.5 -212q1 -64 -63 -64zM375 498q-45 57 -106 57q-111 0 -111 -157q0 -29 4 -61h252q2 15 2 32
q0 75 -41 129z" />
    <glyph glyph-name="f" unicode="f" horiz-adv-x="576" 
d="M263 746l104 -90q97 9 97 88q0 36 -27 60.5t-63 24.5q-124 0 -204 -75t-83 -197h-125q-4 0 -4 -4q0 -5 5 -5q103 -12 109 -77q3 -26 1 -372q0 -79 -13 -120q-17 -57 -67 -72q-4 -1 -4 -5q0 -3 4 -4h143q96 0 96 199v397h14q89 0 149 -43l6 -6q4 0 4 5v105h-172l-1 105
q0 75 31 86z" />
    <glyph glyph-name="g" unicode="g" horiz-adv-x="831" 
d="M687 587q0 -5 -5 -5q-58 -11 -76 -94q-7 -34 -7 -122v-373q0 -50 -25 -108q-26 -61 -62 -89q-95 -76 -232 -69q-53 6 -95 22q-101 39 -129 124l44 -1q28 -39 78 -60q41 -17 84 -17q66 0 111 47q49 50 51 136l1 59q-54 -58 -159 -58q-114 0 -192 72q-93 86 -93 241
q0 121 59 200q69 94 203 99q133 4 182 -80v80h258q5 0 4 -4zM425 267q0 75 -6 109q-7 49 -33 91q-18 30 -52 45q-30 14 -61 12q-105 -7 -105 -159q0 -43 10 -97q14 -73 49 -130q47 -75 108 -75q15 0 33 6q57 20 57 125v73z" />
    <glyph glyph-name="h" unicode="h" horiz-adv-x="793" 
d="M344 494q-85 0 -85 -107v-190q0 -90 11 -120q22 -58 99 -73q5 -1 6 -5q0 -3 -5 -4h-353q-4 1 -4 4q0 4 5 5q55 11 71 87q6 32 6 114v383q0 95 -10 125q-21 61 -101 76q-5 1 -5 5t4 4h276v-302q81 70 214 60q73 -4 104.5 -46.5t31.5 -130.5q-3 -13 0 -178q1 -83 13 -123
q18 -59 69 -74q4 -2 4 -5t-3 -4h-180q-68 0 -67 204v110q0 98 -23 141.5t-78 43.5z" />
    <glyph glyph-name="i" unicode="i" horiz-adv-x="480" 
d="M214 739q35 0 59 24t24 59q0 34 -24 58.5t-59 24.5t-59.5 -24t-24.5 -59q0 -36 24.5 -59.5t59.5 -23.5zM417 9q-83 16 -105 81q-11 31 -11 130v368h-296q-5 -1 -5 -5q1 -4 6 -5q83 -16 105 -80q11 -32 11 -130v-150q0 -84 -7 -118q-17 -80 -74 -91q-5 -1 -5 -5t4 -5
l378 1q5 0 5 4q-1 5 -6 5z" />
    <glyph glyph-name="j" unicode="j" horiz-adv-x="416" 
d="M345 594h-361q-4 -1 -4 -5t5 -5q82 -15 103 -77q10 -30 10 -127v-405q0 -69 -17 -111q-18 -45 -66 -90q-9 -8 2 -9h45q76 24 140 103q63 76 63 137q-1 35 0 375q1 84 7 116q16 78 72 88q5 1 5 5t-4 5zM246 820q0 -34 -23.5 -58t-57.5 -24t-57.5 24t-23.5 58q0 33 23.5 57
t57.5 24t57.5 -24t23.5 -57z" />
    <glyph glyph-name="k" unicode="k" horiz-adv-x="849" 
d="M790 10q-49 10 -83 40q-19 17 -50 61l-216 297q133 156 228 172q6 1 9 5q4 4 0 4h-297q-5 0 -8 -4t1 -5q52 -12 52 -48q0 -45 -103 -163l-59 -67l1 497h-290q-4 0 -4 -4q0 -5 5 -6q84 -15 106 -79q11 -31 11 -131v-359q0 -85 -7 -119q-17 -81 -74 -92q-5 -1 -5 -5t4 -4
h371q4 0 4 4t-5 5q-81 16 -104 76q-10 29 -13 125l73 81l130 -185q46 -65 93 -88q37 -19 96 -19h134q5 1 5 5q0 5 -5 6z" />
    <glyph glyph-name="l" unicode="l" horiz-adv-x="477" 
d="M274 800h-301q-4 0 -4 -4t5 -5q87 -16 110 -81q11 -30 11 -130v-360q0 -85 -8 -119q-17 -81 -76 -92q-5 -1 -5 -5t4 -4h384q5 0 5 4q-1 4 -6 5q-82 15 -106 73q-14 33 -14 121z" />
    <glyph glyph-name="m" unicode="m" horiz-adv-x="1206" 
d="M1126 7q-53 16 -72 78q-13 42 -15 130q-2 174 0 187q0 94 -33 138.5t-110 49.5q-149 10 -244 -76q-31 69 -125 76q-141 9 -226 -64v62h-292q-4 0 -4 -4t5 -5q84 -16 107 -80q11 -32 11 -132v-148q0 -87 -7 -121q-17 -80 -75 -91q-5 -1 -5 -5t4 -5h373q5 1 5 5q-1 4 -6 5
q-81 16 -104 76q-12 32 -12 127v201q0 112 90 112q57 0 81.5 -45.5t24.5 -149.5v-115q-1 -216 71 -216h190q4 1 4 5q0 3 -5 5q-54 16 -73 78q-13 42 -14 130q-2 174 0 187q0 -6 0 9v0q0 112 90 112q58 0 82.5 -45.5t24.5 -149.5v-115q-2 -216 70 -216h190q4 1 4 5q0 3 -5 5z
" />
    <glyph glyph-name="n" unicode="n" horiz-adv-x="837" 
d="M379 522q-90 0 -90 -112v-199q0 -95 12 -127q23 -60 105 -77q5 -1 6 -5q0 -4 -5 -5h-374q-4 1 -4 5t5 5q58 12 75 92q7 34 7 121v149q0 100 -11 132q-23 64 -107 80q-5 1 -5 5t4 4h292v-63q86 74 227 65q77 -6 110 -50.5t33 -137.5q-2 -14 0 -188q1 -88 14 -130
q20 -62 73 -79q5 -2 5 -5q0 -4 -4 -5h-191q-72 0 -70 217v116q0 103 -24.5 147.5t-82.5 44.5z" />
    <glyph glyph-name="o" unicode="o" horiz-adv-x="687" 
d="M305 601q-140 0 -219 -76q-74 -72 -74 -191v-66q0 -120 74 -192q79 -76 219 -76q135 0 214 74.5t79 193.5v66q0 118 -79 192.5t-214 74.5zM338 48q-127 -15 -157 236q-4 39 -4 74q0 179 102 191q63 7 106 -62q38 -63 51 -173q5 -43 5 -80q0 -173 -103 -186z" />
    <glyph glyph-name="p" unicode="p" horiz-adv-x="713" 
d="M352 589q-13 0 -396 -2q-4 0 -4 -4t5 -5q84 -16 107 -80q10 -31 10 -131v-541q0 -71 -18 -116t-68 -91q-9 -9 2 -10h25q87 21 161 105q70 79 70 142v55v123q49 -37 106 -37q160 0 237 87q66 75 66 209q0 133 -69 210q-78 87 -234 86zM334 534q49 -5 90 -62.5t56 -144.5
q10 -57 10 -106q0 -142 -76 -171q-16 -6 -32 -6q-86 0 -136 143v347h88z" />
    <glyph glyph-name="q" unicode="q" horiz-adv-x="740" 
d="M680 -314q-55 17 -74 85q-12 41 -12 121l1 497q0 89 11 130q-58 32 -154 51q-79 16 -137 16q-139 0 -213 -71q-82 -79 -82 -219q0 -137 68 -214q75 -84 227 -85q68 -1 109 11l-1 -117q-2 -215 103 -215h155q4 1 4 5q0 3 -5 5zM424 52q-42 -13 -77 -6q-128 23 -155 245
q-5 46 -5 80q0 138 104 159q42 8 83 -10q35 -21 45 -81q5 -29 5 -105v-282z" />
    <glyph glyph-name="r" unicode="r" horiz-adv-x="666" 
d="M557 498q0 37 -27.5 63t-67.5 30q-16 1 -30 1q-138 0 -182 -120v116h-285q-4 0 -4 -4t5 -5q84 -16 107 -77q10 -29 10 -128v-154q0 -85 -7 -120q-17 -80 -74 -91q-5 -1 -5 -5t4 -5h368q4 1 4 5t-5 5q-85 16 -107 80q-11 31 -11 131l1 165q1 85 57 104q25 8 48 -10l96 -76
q105 11 105 95z" />
    <glyph glyph-name="s" unicode="s" horiz-adv-x="637" 
d="M305 -13q-142 0 -265 44l-1 152q2 11 10 -1q50 -72 123 -117q43 -27 106 -32q38 -2 74.5 19.5t42.5 51.5q2 9 2 18q0 76 -162 112q-224 51 -224 190q0 24 7 51q29 121 222 121q145 0 263 -54v-158q-1 -11 -10 1q-50 71 -122 117q-67 42 -148 42q-60 0 -75 -34
q-8 -19 -8 -34q0 -68 170 -101q100 -19 159 -65q77 -60 68 -156q-8 -86 -96 -132q-65 -35 -136 -35z" />
    <glyph glyph-name="t" unicode="t" horiz-adv-x="579" 
d="M274 588l-1 144h-171q-9 -1 -9 -10v-133h-146q-4 -1 -4 -5t5 -5q146 -27 146 -133l1 -232q0 -214 72 -214h194q4 0 4 4t-5 6q-54 16 -74 77q-14 43 -14 129l-1 310q111 -2 158 -45q7 -7 6 -7q4 0 4 6l1 108h-166z" />
    <glyph glyph-name="u" unicode="u" horiz-adv-x="823" 
d="M743 4q-84 16 -106 80q-11 32 -11 131v370h-290q-5 -1 -5 -5q1 -4 6 -5q82 -16 104 -76q12 -32 12 -127v-161q0 -69 -16 -103q-23 -45 -82 -45q-56 0 -78 48q-19 43 -19 143v115q1 216 -131 216h-129q-4 -1 -4 -5q0 -3 5 -5q53 -16 72 -78q14 -46 14 -130v-140
q0 -204 143 -233q31 -7 61 -7q112 0 164 71q25 -59 102 -63h189q4 0 4 4t-5 5z" />
    <glyph glyph-name="v" unicode="v" horiz-adv-x="900" 
d="M800 587h-323q-4 0 -4 -4q0 -5 5 -6q87 -16 87 -76q0 -31 -45 -132l-84 -190l-89 190q-31 66 -31 124q0 73 59 84q5 1 5 6q0 4 -4 4h-391q-4 0 -4 -4q0 -5 5 -6q80 -18 137 -84q31 -37 82 -132l209 -390q3 -7 9 -7q7 0 11 7q1 0 186 385q46 96 64 125q55 85 115 96
q5 1 5 6q0 4 -4 4z" />
    <glyph glyph-name="w" unicode="w" horiz-adv-x="1172" 
d="M1102 588h-287q-4 -1 -4 -4t4 -4q81 -13 81 -67q0 -17 -8 -48q-13 -50 -14 -56l-69 -219l-135 230q-18 60 -18 90q0 61 55 70q5 1 5 4q1 3 -3 4h-327q-4 -1 -4 -4q-1 -3 4 -4q67 -14 103 -66q13 -19 47 -102l8 -20l-74 -205l-151 234q-28 75 -28 103q0 48 48 56q5 1 5 4
q1 3 -3 4h-349q-4 -1 -4 -4q-1 -3 4 -4q62 -15 105 -66q25 -30 63 -100l238 -451q2 -2 5 -2t5 2v0l163 346l183 -335q3 -3 5 -3q3 0 5 3l197 435q34 74 49 97q42 65 95 74q5 1 5 4t-4 4z" />
    <glyph glyph-name="x" unicode="x" horiz-adv-x="875" 
d="M769 10q-56 10 -93 46q-37 41 -73 81q-6 6 -148 194q112 124 118 129q76 67 86 75q49 35 107 46q5 1 5 5t-4 5h-319q-5 -1 -4 -5q0 -4 5 -5q25 -5 43 -24.5t18 -47.5q0 -37 -34 -78q-2 -3 -53 -58l-163 218h-253q-4 -1 -4 -5t5 -5q59 -11 101 -47q19 -17 70 -80
q7 -9 146 -189q-84 -94 -127.5 -128t-87.5 -68q-53 -38 -108 -59q-5 -2 -5 -6t4 -4h325q5 0 4 4q0 5 -5 6q-53 10 -53 75q0 34 20 67q19 30 62 75l175 -227h241q4 0 4 4q0 5 -5 6z" />
    <glyph glyph-name="y" unicode="y" horiz-adv-x="893" 
d="M784 588h-307q-4 -1 -4 -5t5 -5q81 -15 81 -69q0 -22 -13.5 -58t-27.5 -70q-47 -131 -104 -227l-115 227q-29 58 -29 116q0 71 56 81q5 1 5 5t-4 5h-386q-4 -1 -4 -5t5 -5q77 -17 131 -79q36 -42 77 -127l170 -353q-60 -73 -133 -131q-84 -66 -231 -131
q-119 -52 -193 -70q-5 -1 -5 -5t4 -5l315 1q167 121 294 282t251 407q29 60 57 119q48 82 104 92q5 1 5 5t-4 5z" />
    <glyph glyph-name="z" unicode="z" horiz-adv-x="696" 
d="M38 445q0 -4 4 -4q5 0 5 5q11 58 92 74q35 8 120 8h94q33 0 33 -21q0 -22 -42 -66l-334 -434q-7 -9 4 -9h573v144q-1 4 -5 4t-5 -5q-17 -87 -212 -81l-69 2q-43 1 -43 31q0 28 39 66l325 430h-579v-144z" />
    <glyph glyph-name="braceleft" unicode="{" horiz-adv-x="241" 
d="M-14 406q37 5 37 63q0 12 -2 26v206q0 67 42 89q22 11 68 11l18 -20q-37 -5 -37 -64q0 -12 2 -26v-205q0 -55 -28 -80q28 -25 28 -80v-216q-2 -14 -2 -25q0 -59 37 -64l-18 -20q-46 0 -68 11q-42 22 -42 89v216q2 14 2 26q0 58 -37 63z" />
    <glyph glyph-name="bar" unicode="|" horiz-adv-x="224" 
d="M20 310q0 -28 -12 -31q-2 -1 0 -1h106q1 1 -1 1q-16 4 -16 31v454q0 28 11 31q2 0 0 1h-105q-2 -1 0 -1q17 -4 17 -31v-454z" />
    <glyph glyph-name="braceright" unicode="}" horiz-adv-x="215" 
d="M145 406q-37 5 -37 63q0 12 2 26v206q0 67 -42 89q-22 11 -67 11l-19 -20q37 -5 37 -64q0 -12 -2 -26v-205q0 -55 29 -80q-29 -25 -29 -80v-216q2 -14 2 -25q0 -59 -37 -64l19 -20q45 0 67 11q42 22 42 89v216q-2 14 -2 26q0 58 37 63z" />
    <glyph glyph-name="asciitilde" unicode="~" horiz-adv-x="658" 
d="M611 495q-12 14 -30 14q-16 0 -27.5 -11.5t-11.5 -27.5q0 -17 11.5 -29t27.5 -11q2 0 11 1q16 -18 16 -40t-17.5 -38.5t-46.5 -16.5q-24 0 -50 12l-295 135q-44 20 -84 20q-62 0 -100.5 -43.5t-38.5 -100.5q0 -55 36 -91q11 -12 28 -12q16 0 27.5 12t11.5 28t-11.5 27.5
t-27.5 11.5q-5 0 -10 -1q-16 18 -16 39q0 23 18 39t46 16q24 0 50 -12l295 -135q44 -20 84 -20q62 0 103 46q38 42 38 99q0 55 -37 89z" />
    <glyph glyph-name="nonbreakingspace" unicode="&#xa0;" 
 />
    <glyph glyph-name="exclamdown" unicode="&#xa1;" horiz-adv-x="313" 
d="M164 568q-12 0 -23.5 -10.5t-11.5 -22.5q-14 -136 -36 -306q-18 -134 -18 -144q0 -37 26 -63.5t63 -26.5t63.5 26.5t26.5 63.5q0 10 -18 143q-22 168 -36 303q0 12 -11.5 24.5t-24.5 12.5zM81 725q0 35 24.5 59.5t58.5 24.5q35 0 59.5 -24.5t24.5 -59.5
q0 -34 -24.5 -58.5t-59.5 -24.5q-34 0 -58.5 24.5t-24.5 58.5z" />
    <glyph glyph-name="cent" unicode="&#xa2;" horiz-adv-x="527" 
d="M518 132q-80 -4 -127 -35q-51 -40 -101 -39v457q113 -11 211 -137q8 -4 10 4v110q2 8 -7 13v0q-39 14 -78 29q-66 19 -136 21v82h-43v-82q-132 -6 -197 -67q-78 -75 -78 -209q0 -128 65 -201q70 -80 210 -83v-90h43v91q170 11 228 136zM132 273q-4 39 -4 71q0 74 23 114
q28 48 96 56v-446q-46 20 -77 75.5t-38 129.5z" />
    <glyph glyph-name="sterling" unicode="&#xa3;" horiz-adv-x="698" 
d="M630 141q-13 -68 -65 -87q-25 -8 -107 -8h-149q49 74 49 168q0 45 -11 93h91q82 0 89 -34q0 -2 2 -2t2 2v155q0 2 -2 2t-2 -2q-7 -35 -34 -45q-13 -4 -55 -4h-111q-16 43 -85 179q-19 38 -19 76q0 49 29.5 85t71.5 44q24 4 45 4q89 0 182 -98q6 -2 7 5v88q0 7 -7 10v0
q-105 30 -199 25q-98 -5 -152 -58q-64 -63 -64 -160q0 -69 61 -200h-50q-82 0 -89 34q0 2 -2 2t-2 -2v-156q0 -1 2 -1t2 2q7 35 34 45q13 4 55 4h80q4 -21 4 -48q0 -72 -28 -139q-33 -79 -94 -115q-12 -7 -1 -8l529 -1v146q0 3 -3 3q-4 0 -4 -4z" />
    <glyph glyph-name="currency" unicode="&#xa4;" horiz-adv-x="624" 
d="M485 982l-35 38q-1 0 -1 -1q8 -14 3 -22q-8 -14 -34 -27q-1 3 -3 4q7 14 16 53q2 10 -4 13.5t-11 2.5l-46 -24l1 -1q29 8 38 -42q-3 -1 -4 -3q-8 7 -26 19q-21 14 -29 14q-12 0 -11 -13l9 -51q2 -1 2 1q0 30 52 25v0q1 -2 1 -4q-14 -7 -45 -34q-5 -5 -5 -10q0 -9 8 -12
l51 -8q3 1 0 2q-15 5 -16 15q-2 17 11 43q1 0 3 -1q3 -16 20 -53q4 -9 12 -9q6 1 9 6l23 46q0 2 -1 0q-10 -12 -20 -11q-16 3 -37 23q1 1 2 3q15 -3 56 -1q10 1 12 8q2 6 -1 11zM670 983l-35 38q-1 0 -1 -2q8 -13 3 -21q-8 -14 -34 -27q-1 3 -3 4q7 13 16 53q2 9 -4 13
t-11 2l-46 -23q0 -1 1 -1q29 8 38 -43q-3 0 -4 -2q-8 7 -26 19q-21 13 -29 13q-12 0 -11 -12l9 -51q2 -1 2 1q0 30 52 24v0q1 -2 1 -3q-14 -7 -45 -35q-5 -4 -5 -9q0 -9 8 -12l51 -8q3 1 0 2q-15 5 -16 15q-2 17 11 43q1 -1 3 -1q3 -16 20 -54q4 -8 12 -8q6 1 9 6l23 46
q0 2 -1 0q-10 -12 -20 -11q-16 3 -37 23q1 1 2 3q15 -3 56 -1q10 1 12 8q2 6 -1 11z" />
    <glyph glyph-name="yen" unicode="&#xa5;" horiz-adv-x="886" 
d="M809 798h-295q-3 -1 -3 -4q0 -4 4 -5q23 -4 37.5 -22t14.5 -41q0 -17 -9 -33q-1 -2 -103 -237l-137 236q-9 16 -9 33q0 23 14.5 41t37.5 22q4 1 4 5q0 3 -3 4h-368q-4 -1 -4 -4q1 -4 5 -5q90 -17 165 -109q47 -85 178 -292v-20h-152q-27 0 -29 11q-1 2 -1 0v-100
q1 -2 1 0q3 16 29 16h152v-69h-152q-27 0 -29 11q-1 1 -1 0v-101q1 -1 1 0q3 16 29 16h152q-2 -138 -70 -150q-4 -1 -4 -5q0 -3 3 -4h321q4 1 4 4q0 4 -5 5q-64 12 -85 56q-14 28 -15 94h130q27 0 29 -11q1 -1 1 0v101q0 1 -1 0q-3 -16 -29 -16h-131v69h131q27 0 29 -11
q1 -2 1 0v100q0 1 -1 0q-3 -16 -29 -16h-131v53q47 70 106 171q25 45 51 89q75 92 165 109q5 1 5 5q0 3 -4 4z" />
    <glyph glyph-name="brokenbar" unicode="&#xa6;" horiz-adv-x="458" 
d="M347 542q0 38 16 41q3 1 0 2h-144q-2 -2 1 -2q16 -3 20 -16q2 -6 2 -25v-143q0 -38 -15 -41q-4 -1 -1 -2h144q3 1 0 2q-17 3 -21 15q-2 6 -2 26v143zM344 185q0 38 16 41q3 1 0 2h-143q-3 -1 0 -2q16 -3 21 -15q2 -6 2 -26v-143q0 -38 -16 -41q-3 0 0 -2h143q3 2 0 2
q-16 3 -21 16q-2 6 -2 25v143z" />
    <glyph glyph-name="section" unicode="&#xa7;" horiz-adv-x="574" 
d="M418 294q101 38 109 126q14 144 -197 185q-148 29 -148 93q0 17 10 37q17 34 84 34q64 0 108 -27q63 -40 106 -101q7 -11 8 -1v115q-102 46 -226 46q-167 0 -193 -104q-5 -21 -5 -41q0 -98 135 -146q-110 -18 -130 -99q-5 -21 -5 -41q0 -117 193 -163q139 -32 139 -100
q0 -8 -1 -16q-5 -25 -36.5 -44t-64.5 -17q-54 4 -91 27q-63 40 -106 101q-8 11 -9 1l1 -131q105 -38 228 -38q61 0 118 30q76 40 82 114q11 109 -109 160zM192 449q17 35 84 35q18 0 37 -4q93 -31 93 -87q0 -8 -1 -16q-9 -44 -71 -58h-4q-148 29 -148 93q0 17 10 37z" />
    <glyph glyph-name="dieresis" unicode="&#xa8;" horiz-adv-x="644" 
d="M525 777q0 -35 -24.5 -59.5t-59.5 -24.5q-34 0 -58.5 24.5t-24.5 59.5q0 34 24.5 58.5t58.5 24.5q35 0 59.5 -24.5t24.5 -58.5zM252 777q0 -35 -24.5 -59.5t-58.5 -24.5q-35 0 -59.5 24.5t-24.5 59.5q0 34 24.5 58.5t59.5 24.5q34 0 58.5 -24.5t24.5 -58.5z" />
    <glyph glyph-name="copyright" unicode="&#xa9;" horiz-adv-x="285" 
d="M-12 249zM120 74q18 -1 37.5 6.5t21.5 19.5q1 4 2 0v-36h-71q-37 0 -58 22.5t-21 57.5q0 34 23 56q19 19 55 21q33 1 71 -9v0q3 -1 3 -4v-31q-1 -2 -3 -2q-33 35 -65 35q-8 0 -17 -2q-30 -5 -30 -51q0 -30 11 -53q14 -29 41 -30zM255 141q0 -57 -40 -97t-97 -40
q-56 0 -96 40t-40 97t40 97t96 40q57 0 97 -40t40 -97zM118 253q-46 0 -78.5 -33t-32.5 -79t32.5 -79t78.5 -33q47 0 79.5 33t32.5 79t-32.5 79t-79.5 33z" />
    <glyph glyph-name="ordfeminine" unicode="&#xaa;" 
 />
    <glyph glyph-name="guillemotleft" unicode="&#xab;" horiz-adv-x="496" 
d="M356 600q-67 71 -141 152q-6 9 -7 22q0 11 6 20q31 37 129 162q8 13 22 5q15 -7 6 -21q-30 -67 -74 -164q23 -43 86 -158q9 -13 -5 -22q-14 -8 -22 4zM356 600q-67 71 -141 152q-6 9 -7 22q0 11 6 20q31 37 129 162q8 13 22 5q15 -7 6 -21q-30 -67 -74 -164
q23 -43 86 -158q9 -13 -5 -22q-14 -8 -22 4zM356 600q-67 71 -141 152q-6 9 -7 22q0 11 6 20q31 37 129 162q8 13 22 5q15 -7 6 -21q-30 -67 -74 -164q23 -43 86 -158q9 -13 -5 -22q-14 -8 -22 4zM356 600q-67 71 -141 152q-6 9 -7 22q0 11 6 20q31 37 129 162q8 13 22 5
q15 -7 6 -21q-30 -67 -74 -164q23 -43 86 -158q9 -13 -5 -22q-14 -8 -22 4zM147 598q-66 71 -140 152q-7 9 -7 22q0 11 5 21q32 36 130 161q8 13 22 5q15 -7 6 -21q-30 -67 -74 -164q23 -43 85 -158q10 -13 -4 -22q-14 -8 -23 4zM147 598q-66 71 -140 152q-7 9 -7 22
q0 11 5 21q32 36 130 161q8 13 22 5q15 -7 6 -21q-30 -67 -74 -164q23 -43 85 -158q10 -13 -4 -22q-14 -8 -23 4z" />
    <glyph glyph-name="logicalnot" unicode="&#xac;" 
 />
    <glyph glyph-name="hyphen" unicode="&#xad;" horiz-adv-x="581" 
d="M527 377q38 0 41 -16q1 -3 2 0l2 126q-1 3 -2 0q-3 -17 -15 -21q-6 -2 -26 -2h-365q-38 0 -41 16q-1 3 -2 0l-2 -126q1 -2 2 0q3 17 15 21q6 2 26 2h365z" />
    <glyph glyph-name="registered" unicode="&#xae;" horiz-adv-x="304" 
d="M127 280q-58 0 -99 -41t-41 -99t41 -99t99 -41t99 41t41 99t-41 99t-99 41zM127 25q-48 0 -81.5 33.5t-33.5 81.5q0 47 33.5 81t81.5 34q47 0 81 -34t34 -81q0 -38 -23 -69q-5 5 -10 12l-45 60q4 2 12 7q16 14 16 33q0 41 -53 41q-14 0 -29 -4h-59q-2 -1 1 -2
q17 -3 21 -16q2 -6 2 -27v-70q0 -40 -16 -43q-4 0 0 -2h75q3 2 0 2q-17 4 -22 17q-2 6 -2 26v27q17 -1 25 0l36 -50q15 -22 38 -22h1q-34 -35 -83 -35zM126 140h-16v62q5 10 18 11q23 -1 30 -24q3 -8 3 -15q0 -34 -35 -34z" />
    <glyph glyph-name="macron" unicode="&#xaf;" 
 />
    <glyph glyph-name="macron" unicode="&#x2c9;" 
 />
    <glyph glyph-name="degree" unicode="&#xb0;" horiz-adv-x="369" 
d="M353 913q18 0 30.5 12.5t12.5 30.5t-12.5 30.5t-30.5 12.5t-31 -12.5t-13 -30.5t13 -30.5t31 -12.5zM353 982q26 0 26 -26t-26 -26t-26 26t26 26z" />
    <glyph glyph-name="plusminus" unicode="&#xb1;" horiz-adv-x="387" 
d="M279 492q16 0 17 -7q0 -1 1 0v64q-1 1 -1 0q-2 -11 -17 -11h-257q-16 0 -17 7l-1 1v-64q0 -1 1 0q1 10 17 10h257zM296 777q-2 -10 -17 -10h-107v114q0 17 7 18q1 1 0 1h-60q-1 -1 0 -1q9 -2 9 -18v-114h-106q-16 0 -17 7q-1 1 -1 0v-64q0 -1 1 0q1 10 17 10h106v-114
q0 -17 -6 -18q-1 0 0 -1h60q1 1 0 1q-10 2 -10 18v114h107q16 0 17 -7q0 -1 1 0v64q-1 1 -1 0z" />
    <glyph glyph-name="twosuperior" unicode="&#xb2;" horiz-adv-x="379" 
d="M281 571q0 2 -1 2q-2 0 -2 -2q-7 -32 -30 -41q-13 -6 -48 -6h-77q-7 11 -7 25q0 29 33 44q24 10 76 36q55 32 53 88q-3 76 -85 83q-38 3 -71 -5q-21 -7 -41 -13v0q-5 -2 -5 -7v-63q1 -5 6 -3q30 58 78 58q37 0 50 -32q8 -19 8 -35q0 -33 -40 -61q-37 -24 -74 -49
q-40 -32 -40 -77q0 -11 2 -22l1 -9h214v89z" />
    <glyph glyph-name="threesuperior" unicode="&#xb3;" horiz-adv-x="371" 
d="M156 637q36 0 54 -28q14 -23 10 -51q-3 -25 -22.5 -42t-42.5 -17q-51 0 -69 70q-4 4 -7 0l-30 -55q-2 -4 1 -8v0q8 -9 40 -18q36 -10 71 -10q41 0 66 16q53 31 53 81q0 15 -5 30q-16 50 -76 52q68 28 61 83q-7 53 -76 58q-33 2 -62 -6q-18 -6 -37 -12q-4 -1 -4 -6v-55
q1 -4 3 -5q25 55 69 55q52 0 52 -50q0 -54 -69 -64q-42 -6 -34 -18h54z" />
    <glyph glyph-name="acute" unicode="&#xb4;" horiz-adv-x="595" 
d="M225 699q-10 17 5 26q92 75 198 159q12 7 25 7q21 0 35.5 -14.5t14.5 -35.5q0 -27 -24 -42q-53 -24 -227 -106q-5 -4 -14 -2q-10 2 -13 8z" />
    <glyph glyph-name="mu" unicode="&#xb5;" 
 />
    <glyph glyph-name="mu" unicode="&#x3bc;" 
 />
    <glyph glyph-name="paragraph" unicode="&#xb6;" horiz-adv-x="573" 
d="M489 801h-216v1h-172q-51 0 -87 -37t-36 -88q0 -62 50 -115q53 -56 130 -65q14 -1 14 7q0 4 -5 10q-26 25 -53 50q-41 48 -41 106q0 44 40 80q37 33 77 33q36 0 46 -32q1 -13 1 -36v-620q0 -39 -4 -53q-9 -30 -41 -56q-2 -3 -1 -4l113 68v672q0 34 5 46q9 22 38 29
q29 -8 29 -82v-536q0 -40 -4 -54q-9 -30 -41 -56q-2 -2 -1 -4l113 68v589q0 34 5 47q10 22 41 28q2 1 2 2q0 2 -2 2z" />
    <glyph glyph-name="periodcentered" unicode="&#xb7;" horiz-adv-x="197" 
d="M185 373q0 -39 -27.5 -66.5t-67.5 -27.5q-39 0 -66 27.5t-27 66.5q0 40 27 67.5t66 27.5q40 0 67.5 -27.5t27.5 -67.5z" />
    <glyph glyph-name="periodcentered" unicode="&#x2219;" horiz-adv-x="197" 
d="M185 373q0 -39 -27.5 -66.5t-67.5 -27.5q-39 0 -66 27.5t-27 66.5q0 40 27 67.5t66 27.5q40 0 67.5 -27.5t27.5 -67.5z" />
    <glyph glyph-name="cedilla" unicode="&#xb8;" horiz-adv-x="554" 
d="M350 -4l-118 -83q146 -17 157 -112q-4 -28 -23 -51q-45 -53 -157 -69v-26q27 -2 53 -2q153 0 221 80q28 34 37 81q-1 30 -17 53q-37 54 -143 62l110 71h-75z" />
    <glyph glyph-name="onesuperior" unicode="&#xb9;" horiz-adv-x="318" 
d="M186 802h-22l-84 -40q-1 0 -1 -2q0 -1 2 -2q30 -2 38 -11t8 -37v-138q0 -78 -32 -84q-2 -1 -2 -2q0 -2 2 -2h138q2 0 2 2q0 1 -2 2q-32 6 -41 29q-5 13 -5 48z" />
    <glyph glyph-name="ordmasculine" unicode="&#xba;" 
 />
    <glyph glyph-name="guillemotright" unicode="&#xbb;" horiz-adv-x="635" 
d="M182 595q64 73 135 157q6 9 6 20v1v2q0 11 -6 20q-33 35 -135 157q-8 12 -22 4q-15 -8 -6 -22q33 -65 80 -161q-21 -44 -80 -160q-9 -14 6 -22q14 -8 22 4zM182 595q64 73 135 157q6 9 6 20v1v2q0 11 -6 20q-33 35 -135 157q-8 12 -22 4q-15 -8 -6 -22q33 -65 80 -161
q-21 -44 -80 -160q-9 -14 6 -22q14 -8 22 4zM182 595q64 73 135 157q6 9 6 20v1v2q0 11 -6 20q-33 35 -135 157q-8 12 -22 4q-15 -8 -6 -22q33 -65 80 -161q-21 -44 -80 -160q-9 -14 6 -22q14 -8 22 4zM182 595q64 73 135 157q6 9 6 20v1v2q0 11 -6 20q-33 35 -135 157
q-8 12 -22 4q-15 -8 -6 -22q33 -65 80 -161q-21 -44 -80 -160q-9 -14 6 -22q14 -8 22 4zM390 601q64 73 135 157q6 9 6 20v1v1q0 11 -6 20q-33 36 -135 157q-8 12 -22 5q-15 -9 -6 -22q33 -66 80 -161q-21 -45 -80 -161q-9 -14 6 -22q14 -8 22 5zM390 601q64 73 135 157
q6 9 6 20v1v1q0 11 -6 20q-33 36 -135 157q-8 12 -22 5q-15 -9 -6 -22q33 -66 80 -161q-21 -45 -80 -161q-9 -14 6 -22q14 -8 22 5z" />
    <glyph glyph-name="onequarter" unicode="&#xbc;" horiz-adv-x="347" 
d="M203 798h-22l-84 -40q-1 0 -1 -2t2 -2q30 -2 38 -11t8 -37v-139q0 -77 -32 -83q-2 -1 -2 -2q0 -2 2 -2h138q2 0 2 2q0 1 -2 2q-32 6 -41 29q-5 13 -5 47zM304 151q-2 2 -4 0q-23 -43 -72 -46v179q3 22 34 28q2 0 2 2q-1 1 -3 1h-110q-3 -6 -117 -211l7 -34h127
q-1 -63 -32 -69q-2 0 -2 -2q0 -1 2 -1h139q1 0 1 1q0 2 -2 2q-29 6 -39 26q-6 13 -7 43h48zM156 268h13v-163h-103zM321 374q17 0 19 -8q0 -1 1 0v67q-1 0 -1 -1q-2 -10 -19 -10h-284q-18 0 -19 7q-1 1 -1 0v-66q0 -1 1 0q2 11 19 11h284z" />
    <glyph glyph-name="onehalf" unicode="&#xbd;" horiz-adv-x="373" 
d="M229 802h-23l-84 -40q-2 0 -2 -1q0 -2 2 -2q31 -3 39 -12t8 -37v-139q0 -78 -32 -84q-2 -1 -2 -2q0 -2 1 -2h140q1 0 1 2q0 1 -2 2q-31 6 -41 29q-5 13 -5 48v238zM312 91q-1 2 -2 2q-2 0 -2 -2q-6 -32 -29 -41q-13 -6 -48 -6h-78q-7 11 -7 25q0 29 33 44q25 10 77 36
q54 32 52 88q-3 76 -84 83q-38 3 -72 -5q-21 -7 -41 -13v0q-5 -2 -5 -7l1 -63q1 -5 5 -3q30 58 78 58q37 0 51 -32q8 -19 8 -35q0 -33 -40 -61q-38 -24 -75 -49q-40 -32 -40 -77q0 -11 2 -22l2 -9h214v89zM347 376q17 0 19 -7q0 -1 1 0v66q-1 1 -1 0q-2 -10 -19 -10h-286
q-18 0 -19 7q-1 1 -1 0v-66q1 -1 1 0q2 10 19 10h286z" />
    <glyph glyph-name="threequarters" unicode="&#xbe;" horiz-adv-x="428" 
d="M177 637q37 0 54 -28q15 -23 11 -51q-3 -25 -22.5 -42t-43.5 -17q-50 0 -69 70q-3 4 -6 0l-30 -55q-3 -4 1 -8v0q8 -9 40 -18q36 -10 71 -10q40 0 66 16q53 31 53 81q0 15 -5 30q-16 50 -76 52q68 28 61 83q-7 53 -76 58q-33 2 -62 -6q-19 -6 -37 -12q-4 -1 -4 -6v-55
q1 -4 3 -5q25 55 69 55q51 0 51 -50q0 -54 -69 -64q-41 -6 -33 -18h53zM316 152q-2 1 -4 0q-23 -43 -72 -46v179q3 22 34 28q2 0 2 2q-1 1 -3 1h-110q-3 -6 -117 -211l7 -34h127q-1 -63 -32 -69q-2 0 -2 -2t2 -2h139q1 0 1 2t-2 2q-29 6 -39 26q-6 13 -7 43h48zM168 269
l13 -1v-163h-103zM333 375q18 0 19 -8q1 -1 1 0v67q-1 1 -1 0q-2 -11 -19 -11h-285q-17 0 -18 7q-1 1 -1 0v-66q0 -1 1 0q2 11 18 11h285z" />
    <glyph glyph-name="questiondown" unicode="&#xbf;" horiz-adv-x="629" 
d="M201 723q0 34 24.5 58.5t58.5 24.5t58.5 -24.5t24.5 -58.5q0 -35 -24.5 -59.5t-58.5 -24.5t-58.5 24.5t-24.5 59.5zM298 -4q124 0 203 50q83 53 87 147q2 54 -30 94q-35 42 -91 42q-14 0 -29 -2q-37 -7 -60 -37t-23 -69q0 -11 2 -22q6 -31 33 -51t57 -20q9 0 17 2
q1 -16 -16 -38q-23 -30 -62 -39q-27 -7 -54 -7q-70 0 -119.5 40.5t-49.5 96.5q0 50 43 95q115 117 115 248q0 30 -38 30q-40 0 -39 -33q-3 -23 -13 -45q-27 -53 -92 -90q-131 -73 -131 -195q0 -93 85 -147q79 -50 205 -50z" />
    <glyph glyph-name="Agrave" unicode="&#xc0;" horiz-adv-x="867" 
d="M896 9q-77 17 -127 84q-24 32 -71 131l-299 630l-286 -631q-38 -85 -62 -121q-53 -82 -111 -93q-5 -1 -5 -5t4 -4h312q4 0 4 4t-5 5q-77 15 -77 70q0 27 18 72h361q16 -47 16 -79q0 -54 -47 -63q-5 -1 -5 -5t4 -4h377q4 0 4 4t-5 5zM513 245h-282l140 304zM267 924
q2 10 8 14q104 84 223 179q14 8 29 8q32 0 48 -27q8 -13 8 -29q0 -32 -27 -48q-59 -27 -256 -120q-6 -4 -17 -2q-10 2 -14 9t-2 16z" />
    <glyph glyph-name="Aacute" unicode="&#xc1;" horiz-adv-x="957" 
d="M942 10q-77 17 -127 84q-25 32 -72 131l-300 633l-288 -633q-38 -86 -62 -122q-53 -82 -111 -93q-5 -1 -5 -5t4 -5h313q4 1 4 5t-5 5q-77 15 -77 69q0 26 18 73h363q16 -47 16 -79q0 -54 -48 -63q-5 -1 -5 -5t4 -5h379q4 1 4 5t-5 5zM557 246h-283l140 306zM444 930
q2 9 8 13q104 85 223 179q14 8 29 8q32 0 48 -27q8 -13 8 -29q0 -31 -27 -48q-59 -27 -256 -120q-6 -4 -17 -1q-10 2 -14 8.5t-2 16.5z" />
    <glyph glyph-name="Acircumflex" unicode="&#xc2;" horiz-adv-x="904" 
d="M885 9q-77 17 -127 84q-24 32 -71 131l-299 630l-286 -631q-38 -85 -62 -121q-53 -82 -111 -93q-5 -1 -5 -5t4 -4h312q4 0 4 4t-5 5q-77 15 -77 70q0 27 18 72h361q16 -47 16 -79q0 -54 -47 -63q-5 -1 -5 -5t4 -4h377q4 0 4 4t-5 5zM502 245h-282l140 304zM564 929
q-73 64 -157 135q-9 6 -20 6h-1h-1q-11 0 -20 -6q-36 -33 -157 -135q-12 -8 -5 -23q9 -14 22 -5q66 33 161 80q45 -22 161 -80q14 -9 22 5q8 15 -5 23z" />
    <glyph glyph-name="Atilde" unicode="&#xc3;" horiz-adv-x="867" 
d="M896 9q-77 17 -127 84q-24 32 -71 131l-299 630l-286 -631q-38 -85 -62 -121q-53 -82 -111 -93q-5 -1 -5 -5t4 -4h312q4 0 4 4t-5 5q-77 15 -77 70q0 27 18 72h361q16 -47 16 -79q0 -54 -47 -63q-5 -1 -5 -5t4 -4h377q4 0 4 4t-5 5zM513 245h-282l140 304zM690 1103
q-11 11 -26 11q-14 0 -24 -9.5t-10 -23.5q0 -15 10 -25t24 -9h9q15 -15 15 -33q0 -20 -15.5 -34t-40.5 -14q-20 0 -42 11l-252 115q-38 17 -72 17q-53 0 -87 -39q-32 -35 -32 -84q0 -47 31 -78q10 -10 24 -10t24 10t10 24t-10 24t-24 10q-4 0 -9 -1q-13 15 -13 33
q0 19 15 33t40 14q20 0 42 -10l252 -116q38 -17 72 -17q53 0 88 40q32 36 32 84q0 47 -31 77z" />
    <glyph glyph-name="Adieresis" unicode="&#xc4;" horiz-adv-x="867" 
d="M618 981q0 -33 -23 -56.5t-56 -23.5q-32 0 -55.5 23.5t-23.5 56.5t23.5 56.5t55.5 23.5q33 0 56 -23.5t23 -56.5zM361 981q0 -33 -23 -56.5t-56 -23.5t-56 23.5t-23 56.5t23 56.5t56 23.5t56 -23.5t23 -56.5zM896 9q-77 17 -127 84q-24 32 -71 131l-299 630l-286 -631
q-38 -85 -62 -121q-53 -82 -111 -93q-5 -1 -5 -5t4 -4h312q4 0 4 4t-5 5q-77 15 -77 70q0 27 18 72h361q16 -47 16 -79q0 -54 -47 -63q-5 -1 -5 -5t4 -4h377q4 0 4 4t-5 5zM513 245h-282l140 304z" />
    <glyph glyph-name="Aring" unicode="&#xc5;" horiz-adv-x="867" 
d="M896 9q-77 17 -127 84q-24 32 -71 131l-299 630l-286 -631q-38 -85 -62 -121q-53 -82 -111 -93q-5 -1 -5 -5t4 -4h312q4 0 4 4t-5 5q-77 15 -77 70q0 27 18 72h361q16 -47 16 -79q0 -54 -47 -63q-5 -1 -5 -5t4 -4h377q4 0 4 4t-5 5zM513 245h-282l140 304zM400 896
q45 0 76.5 31t31.5 75t-31.5 75t-76.5 31t-76.5 -31t-31.5 -75t31.5 -75t76.5 -31zM400 1066q27 0 46 -19t19 -45t-19 -45t-46 -19t-46 19t-19 45t19 45t46 19z" />
    <glyph glyph-name="AE" unicode="&#xc6;" 
 />
    <glyph glyph-name="Ccedilla" unicode="&#xc7;" horiz-adv-x="706" 
d="M741 754v0q-168 47 -312 47q-28 0 -56 -1q-182 -10 -281 -105q-119 -114 -119 -290t104 -289q111 -120 305 -120h2l-117 -83q145 -17 156 -112q-3 -28 -22 -51q-45 -53 -157 -69v-26q27 -2 52 -2q154 0 222 80q28 34 37 81q-1 30 -17 53q-38 54 -143 62l97 68h253v186
q-1 4 -5 4t-5 -5q-12 -63 -117 -103q-92 -35 -187 -32q-100 4 -171.5 94t-89.5 226q-8 58 -8 108q0 235 159 262q45 8 83 8q88 0 166.5 -41t169.5 -136q12 -4 14 8v161q0 11 -13 17z" />
    <glyph glyph-name="Egrave" unicode="&#xc8;" horiz-adv-x="782" 
d="M451 909q10 17 -6 26q-92 75 -197 159q-12 7 -26 7q-20 0 -34.5 -14.5t-14.5 -35.5q0 -28 24 -42q52 -24 226 -106q6 -4 15 -2t13 8zM716 180q-17 -85 -84 -108q-32 -11 -138 -11h-160q-20 28 -25 75q-2 21 -2 87v163h94q120 -1 170 -47l6 -6q4 0 4 5v157q0 5 -4 5l-6 -6
q-50 -46 -170 -47l-94 -1v128q0 116 21 161h133q89 0 125 -7q85 -17 97 -75q1 -5 5 -5t5 4v145h-690q-4 0 -4 -4t5 -5q89 -17 112 -81q11 -31 11 -133v-351q0 -86 -7 -120q-18 -82 -78 -93q-5 -1 -5 -5q-1 -4 4 -5h685v181q0 4 -5 4q-4 0 -5 -5z" />
    <glyph glyph-name="Eacute" unicode="&#xc9;" horiz-adv-x="653" 
d="M267 931q2 9 8 13q105 85 224 180q13 8 29 8q32 0 48 -27q8 -14 8 -29q0 -32 -27 -48q-59 -28 -257 -120q-6 -4 -16 -2q-11 2 -15 8.5t-2 16.5zM486 741q66 -11 104 -42t58 -95q11 -3 13 8v162q0 11 -12 17v0q-52 15 -135 15l-523 -2q-4 0 -4 -4q0 -5 5 -6
q86 -16 109 -81q11 -32 11 -134v-354q0 -87 -8 -122q-17 -83 -75 -94q-5 -1 -5 -5q-1 -4 4 -4l665 -1v183q0 4 -5 4q-4 0 -5 -5q-16 -86 -82 -109q-31 -11 -133 -11h-155q-20 28 -25 76q-2 20 -2 88v164h91q117 -1 165 -47q7 -7 6 -7q4 0 4 6v157q0 6 -4 6q1 0 -6 -7
q-48 -46 -165 -47h-91v129q0 117 20 162h180z" />
    <glyph glyph-name="Ecircumflex" unicode="&#xca;" horiz-adv-x="702" 
d="M500 926q-79 64 -169 135q-10 6 -22 6h-1h-1q-12 0 -21 -6q-39 -33 -169 -135q-13 -8 -5 -22q9 -15 24 -6q70 33 172 80q48 -21 173 -80q15 -9 24 6q8 14 -5 22zM436 736q66 -11 103.5 -42t57.5 -94q11 -3 13 8v160q0 12 -12 18v0q-51 14 -134 14l-518 -2q-4 0 -4 -4
t5 -5q85 -17 108 -81q10 -31 10 -133v-351q0 -86 -7 -121q-17 -81 -75 -92q-5 -1 -5 -5q0 -5 5 -5h659v180q-1 5 -5 5t-5 -5q-16 -86 -81 -108q-31 -11 -132 -11h-154q-20 28 -25 75q-2 21 -2 87v163h91q116 -1 163 -47q7 -6 6 -6q4 0 4 5v156q0 6 -4 6q1 0 -6 -7
q-47 -46 -163 -46l-91 -1v128q0 116 20 161h178z" />
    <glyph glyph-name="Edieresis" unicode="&#xcb;" horiz-adv-x="722" 
d="M569 985q0 -35 -24.5 -59.5t-58.5 -24.5q-35 0 -59.5 24.5t-24.5 59.5q0 34 24.5 58.5t59.5 24.5q34 0 58.5 -24.5t24.5 -58.5zM297 985q0 -35 -24.5 -59.5t-59.5 -24.5t-59.5 24.5t-24.5 59.5q0 34 24.5 58.5t59.5 24.5t59.5 -24.5t24.5 -58.5zM473 735
q66 -11 103.5 -42t57.5 -94q11 -4 13 8v160q0 11 -12 17v0q-51 15 -134 14l-518 -1q-4 -1 -4 -5t5 -5q85 -16 108 -81q10 -31 10 -132v-351q0 -86 -7 -121q-17 -82 -75 -93q-5 -1 -5 -5t5 -4l659 -1v181q-1 4 -5 4t-5 -5q-16 -85 -81 -108q-31 -10 -132 -10h-154
q-20 27 -25 74q-2 21 -2 88v163l91 -1q116 -1 163 -47q7 -6 6 -6q4 0 4 5v157q0 5 -4 5q1 0 -6 -6q-47 -46 -163 -47h-91v128q0 115 20 161h178z" />
    <glyph glyph-name="Igrave" unicode="&#xcc;" horiz-adv-x="473" 
d="M298 574q0 86 7 121q17 82 75 93q5 1 5 5t-4 5h-378q-4 -1 -4 -5t5 -5q86 -16 108 -81q11 -31 11 -133v-352q0 -86 -7 -121q-17 -82 -75 -93q-5 -1 -5 -5t4 -5h378q4 1 4 5t-5 5q-86 16 -108 81q-11 31 -11 133v352zM217 924q-2 10 -8 14q-104 84 -223 179q-14 8 -29 8
q-32 0 -48 -27q-9 -15 -9 -32q0 -30 25 -45q59 -27 256 -120q7 -4 18 -2q12 3 16 9.5t2 15.5z" />
    <glyph glyph-name="Iacute" unicode="&#xcd;" horiz-adv-x="482" 
d="M-109 508zM297 574q0 86 8 121q17 82 75 93q5 1 5 5t-4 5h-378q-4 -1 -4 -5t5 -5q85 -16 108 -81q11 -31 11 -133v-352q0 -86 -7 -121q-18 -82 -75 -93q-5 -1 -6 -5q0 -4 5 -5h377q5 1 4 5q0 4 -5 5q-85 16 -108 81q-11 31 -11 133v352zM192 924q2 10 8 14
q104 84 223 179q14 8 29 8q32 0 48 -27q8 -13 8 -29q0 -32 -27 -48q-59 -27 -256 -120q-6 -4 -16 -2q-11 2 -15 9t-2 16z" />
    <glyph glyph-name="Icircumflex" unicode="&#xce;" horiz-adv-x="473" 
d="M297 574q0 86 8 121q17 82 75 93q5 1 5 5t-4 5h-378q-4 -1 -4 -5t5 -5q85 -16 108 -81q11 -31 11 -133v-352q0 -86 -7 -121q-18 -82 -75 -93q-5 -1 -6 -5q0 -4 5 -5h377q5 1 4 5q0 4 -5 5q-85 16 -108 81q-11 31 -11 133v352zM382 929q-73 64 -157 135q-9 6 -20 6h-1h-1
q-11 0 -20 -6q-36 -33 -157 -135q-12 -8 -5 -23q9 -14 22 -5q66 33 161 80q45 -22 161 -80q14 -9 22 5q8 15 -5 23z" />
    <glyph glyph-name="Idieresis" unicode="&#xcf;" horiz-adv-x="473" 
d="M298 574q0 86 7 121q17 82 75 93q5 1 5 5t-4 5h-378q-4 -1 -4 -5t5 -5q86 -16 108 -81q11 -31 11 -133v-352q0 -86 -7 -121q-17 -82 -75 -93q-5 -1 -5 -5t4 -5h378q4 1 4 5t-5 5q-86 16 -108 81q-11 31 -11 133v352zM441 984q0 -34 -24.5 -58.5t-59.5 -24.5
q-34 0 -58.5 24.5t-24.5 58.5q0 35 24.5 59.5t58.5 24.5q35 0 59.5 -24.5t24.5 -59.5zM169 984q0 -34 -24.5 -58.5t-59.5 -24.5q-34 0 -58.5 24.5t-24.5 58.5q0 35 24.5 59.5t58.5 24.5q35 0 59.5 -24.5t24.5 -59.5z" />
    <glyph glyph-name="Eth" unicode="&#xd0;" 
 />
    <glyph glyph-name="Ntilde" unicode="&#xd1;" horiz-adv-x="936" 
d="M716 1103q-10 12 -25 12q-14 0 -24 -10t-10 -24t10 -24.5t24 -9.5q1 0 9 1q14 -16 14 -34q0 -20 -15.5 -33.5t-39.5 -13.5q-20 0 -43 10l-252 115q-37 18 -71 18q-54 0 -86.5 -37.5t-32.5 -86.5q0 -47 31 -78q9 -9 23 -9t24 9.5t10 23.5t-10 24t-24 10q-4 0 -8 -1
q-14 15 -14 33q0 20 15.5 33.5t39.5 13.5q20 0 43 -10l252 -115q37 -17 71 -17q54 0 88 39q33 36 33 84q0 47 -32 77zM942 799h-311q-4 -1 -4 -5t5 -5q76 -18 104 -80q15 -34 25 -130l30 -311q1 -2 -499 437q-28 25 -28 48q0 15 12 24t27 12q5 1 6 5q0 4 -5 5h-311
q-4 -1 -4 -5t5 -5q85 -16 108 -81q11 -31 11 -133v-351q0 -87 -8 -122q-17 -81 -74 -92q-6 -1 -6 -5q0 -5 5 -5h311q4 0 4 5q0 4 -5 5q-60 11 -87 45q-21 26 -29 76l-12 92l-23 332l659 -570q9 -6 11 1v589q0 86 8 121q17 82 74 93q5 1 6 5q0 4 -5 5z" />
    <glyph glyph-name="Ograve" unicode="&#xd2;" horiz-adv-x="969" 
d="M144 172zM431 809q-230 0 -345 -119q-102 -106 -102 -288q0 -184 98 -287q113 -119 349 -119q235 0 348 119q98 103 98 287q0 182 -102 288q-115 119 -344 119zM518 51q-27 -6 -53 -6q-113 0 -195 102q-74 93 -93 226q-8 51 -8 98q0 125 50 196q58 85 180 85
q104 0 185.5 -88t100.5 -224q8 -53 8 -101q0 -113 -40 -186q-45 -82 -135 -102zM472 924q-2 10 -8 14q-104 84 -223 179q-14 8 -29 8q-32 0 -48 -27q-8 -13 -8 -29q0 -32 27 -48q59 -27 256 -120q6 -4 16 -2q11 2 15 9t2 16z" />
    <glyph glyph-name="Oacute" unicode="&#xd3;" horiz-adv-x="969" 
d="M144 172zM431 809q-230 0 -345 -119q-102 -106 -102 -288q0 -184 98 -287q113 -119 349 -119q235 0 348 119q98 103 98 287q0 182 -102 288q-115 119 -344 119zM518 51q-27 -6 -53 -6q-113 0 -195 102q-74 93 -93 226q-8 51 -8 98q0 125 50 196q58 85 180 85
q104 0 185.5 -88t100.5 -224q8 -53 8 -101q0 -113 -40 -186q-45 -82 -135 -102zM348 914q-10 16 6 26q92 75 197 158q12 7 26 7q20 0 34.5 -14.5t14.5 -34.5q0 -28 -24 -43q-52 -24 -226 -106q-6 -3 -15 -1t-13 8z" />
    <glyph glyph-name="Ocircumflex" unicode="&#xd4;" horiz-adv-x="969" 
d="M144 172zM431 809q-230 0 -345 -119q-102 -106 -102 -288q0 -184 98 -287q113 -119 349 -119q235 0 348 119q98 103 98 287q0 182 -102 288q-115 119 -344 119zM518 51q-27 -6 -53 -6q-113 0 -195 102q-74 93 -93 226q-8 51 -8 98q0 125 50 196q58 85 180 85
q104 0 185.5 -88t100.5 -224q8 -53 8 -101q0 -113 -40 -186q-45 -82 -135 -102zM624 930q-73 64 -157 135q-9 6 -20 7h-1h-1q-11 -1 -20 -7q-36 -32 -157 -135q-13 -8 -5 -22t22 -5q66 32 161 80q44 -22 161 -80q14 -9 22 5t-5 22z" />
    <glyph glyph-name="Otilde" unicode="&#xd5;" horiz-adv-x="922" 
d="M184 172zM471 809q-230 0 -345 -119q-102 -106 -102 -288q0 -184 98 -287q113 -119 349 -119q235 0 348 119q98 103 98 287q0 182 -102 288q-115 119 -344 119zM558 51q-27 -6 -53 -6q-113 0 -195 102q-74 93 -93 226q-8 51 -8 98q0 125 50 196q58 85 180 85
q104 0 185.5 -88t100.5 -224q8 -53 8 -101q0 -113 -40 -186q-45 -82 -135 -102zM746 1101q-10 12 -26 12q-14 0 -23.5 -10t-9.5 -24t9.5 -24t23.5 -9h9q15 -15 15 -34t-15.5 -33t-40.5 -14q-20 0 -42 10l-252 116q-38 17 -72 17q-53 0 -85.5 -37.5t-32.5 -85.5q0 -47 30 -78
q10 -10 24 -10t24 10t10 24t-10 24t-24 10q-4 0 -9 -2q-13 16 -13 34q0 19 15 33t40 14q20 0 42 -10l252 -116q38 -17 72 -17q53 0 88 39q32 36 32 85q0 47 -31 76z" />
    <glyph glyph-name="Odieresis" unicode="&#xd6;" horiz-adv-x="922" 
d="M184 172zM471 809q-230 0 -345 -119q-102 -106 -102 -288q0 -184 98 -287q113 -119 349 -119q235 0 348 119q98 103 98 287q0 182 -102 288q-115 119 -344 119zM558 51q-27 -6 -53 -6q-113 0 -195 102q-74 93 -93 226q-8 51 -8 98q0 125 50 196q58 85 180 85
q104 0 185.5 -88t100.5 -224q8 -53 8 -101q0 -113 -40 -186q-45 -82 -135 -102zM697 985q0 -35 -24.5 -59.5t-59.5 -24.5t-59.5 24.5t-24.5 59.5q0 34 24.5 58.5t59.5 24.5t59.5 -24.5t24.5 -58.5zM424 985q0 -35 -24.5 -59.5t-59.5 -24.5q-34 0 -59 24.5t-25 59.5
q0 34 25 58.5t59 24.5q35 0 59.5 -24.5t24.5 -58.5z" />
    <glyph glyph-name="multiply" unicode="&#xd7;" horiz-adv-x="438" 
d="M343 341q-5 -4 -10 -4q-6 0 -17 11l-104 105l104 105q12 12 19 12q2 0 5 -2v1l-58 58h-1q4 -5 4 -10q0 -6 -11 -17l-105 -104l-105 104q-12 12 -12 19q0 2 2 5l-1 1l-58 -59v-1q5 4 10 4q6 0 17 -11l104 -105l-104 -105q-12 -12 -19 -12q-2 0 -5 2l-1 -1l59 -58h1
q-4 5 -4 10q0 6 11 17l105 104l105 -104q12 -12 12 -19q0 -2 -2 -5h1l58 58v1z" />
    <glyph glyph-name="Oslash" unicode="&#xd8;" horiz-adv-x="749" 
d="M570 705l51 90q20 35 36 30q1 1 1 2l-133 75q-1 -1 -1 -2q11 -10 11 -21q0 -8 -12 -29l-40 -72q-59 32 -126 32q-148 0 -234 -109q-84 -105 -84 -276q0 -172 80 -292l-48 -85q-20 -35 -36 -30q-1 0 -1 -2l133 -75q1 1 1 2q-11 10 -11 21q0 8 12 29l30 55q71 -50 158 -50
q152 0 238 108q81 104 81 277q0 196 -106 322zM202 483q0 109 26 178q28 75 81 83q10 2 19 2q60 0 102 -62l-212 -376q-16 89 -16 175zM408 53q-9 -2 -19 -2q-78 0 -127 108l221 392q30 -122 30 -251q0 -229 -105 -247z" />
    <glyph glyph-name="Ugrave" unicode="&#xd9;" horiz-adv-x="1047" 
d="M215 204q0 -85 93.5 -144.5t225.5 -59.5t225.5 59.5t93.5 144.5v372q0 86 8 121q17 82 75 93q5 1 5 5t-4 4h-315q-4 0 -4 -4t5 -5q86 -17 108 -82q11 -31 11 -132v-373q0 -54 -53 -93t-126 -39q-72 0 -123.5 38.5t-51.5 93.5v373q0 86 8 121q17 82 74 93q5 1 6 5
q0 4 -5 4h-376q-4 0 -4 -4t5 -5q85 -17 108 -82q11 -31 11 -132v-372zM692 927q-2 9 -8 13q-104 85 -224 179q-13 8 -29 8q-31 0 -47 -27q-8 -13 -8 -28q0 -32 26 -48q60 -28 257 -120q6 -4 16 -2q11 2 15 8.5t2 16.5z" />
    <glyph glyph-name="Uacute" unicode="&#xda;" horiz-adv-x="1047" 
d="M215 204q0 -85 93.5 -144.5t225.5 -59.5t225.5 59.5t93.5 144.5v372q0 86 8 121q17 82 75 93q5 1 5 5t-4 4h-315q-4 0 -4 -4t5 -5q86 -17 108 -82q11 -31 11 -132v-373q0 -54 -53 -93t-126 -39q-72 0 -123.5 38.5t-51.5 93.5v373q0 86 8 121q17 82 74 93q5 1 6 5
q0 4 -5 4h-376q-4 0 -4 -4t5 -5q85 -17 108 -82q11 -31 11 -132v-372zM455 908q-10 17 6 26q92 75 197 159q12 7 26 7q21 0 35.5 -14.5t14.5 -35.5q0 -28 -24 -42q-53 -24 -227 -106q-6 -4 -15 -2t-13 8z" />
    <glyph glyph-name="Ucircumflex" unicode="&#xdb;" horiz-adv-x="843" 
d="M102 204q0 -85 93.5 -144.5t225.5 -59.5t225.5 59.5t93.5 144.5v372q0 86 8 121q17 82 75 93q5 1 5 5t-4 4h-315q-4 0 -4 -4t5 -5q86 -17 108 -82q11 -31 11 -132v-373q0 -54 -53 -93t-126 -39q-72 0 -123.5 38.5t-51.5 93.5v373q0 86 8 121q17 82 74 93q5 1 6 5
q0 4 -5 4h-376q-4 0 -4 -4t5 -5q85 -17 108 -82q11 -31 11 -132v-372zM601 929q-73 64 -157 135q-9 6 -20 6h-1h-1q-11 0 -20 -6q-36 -33 -157 -135q-12 -8 -5 -23q9 -14 22 -5q66 33 161 80q45 -22 161 -80q14 -9 22 5q8 15 -5 23z" />
    <glyph glyph-name="Udieresis" unicode="&#xdc;" horiz-adv-x="811" 
d="M81 204q0 -85 93.5 -144.5t225.5 -59.5t225.5 59.5t93.5 144.5v372q0 86 8 121q17 82 75 93q5 1 5 5t-4 4h-315q-4 0 -4 -4t5 -5q86 -17 108 -82q11 -31 11 -132v-373q0 -54 -53 -93t-126 -39q-72 0 -123.5 38.5t-51.5 93.5v373q0 86 8 121q17 82 74 93q5 1 6 5q0 4 -5 4
h-376q-4 0 -4 -4t5 -5q85 -17 108 -82q11 -31 11 -132v-372zM611 981q0 -33 -23 -56.5t-56 -23.5t-56 23.5t-23 56.5t23 56.5t56 23.5t56 -23.5t23 -56.5zM353 981q0 -33 -23 -56.5t-56 -23.5q-32 0 -55.5 23.5t-23.5 56.5t23.5 56.5t55.5 23.5q33 0 56 -23.5t23 -56.5z" />
    <glyph glyph-name="Yacute" unicode="&#xdd;" horiz-adv-x="966" 
d="M905 798h-345q-4 -1 -4 -5t5 -5q28 -5 44.5 -26t16.5 -48q0 -21 -10 -39q-2 -3 -121 -277l-160 276q-11 18 -11 39q0 26 17 47.5t44 26.5q5 1 5 5t-4 4h-430q-4 0 -4 -4t5 -5q106 -20 193 -128q35 -60 70 -121q78 -134 138 -221q1 -53 0 -98q-1 -91 -7 -120
q-17 -81 -74 -92q-5 -1 -5 -6q0 -4 4 -4h375q4 0 4 4q0 5 -5 6q-85 16 -107 80q-11 31 -11 132v137q54 82 123 200l60 104q88 108 193 128q5 1 5 5t-4 5zM419 910q-10 17 5 26q92 75 198 159q11 7 25 7q21 0 35.5 -14.5t14.5 -35.5q0 -28 -24 -42q-53 -24 -227 -106
q-5 -4 -14 -2q-10 2 -13 8z" />
    <glyph glyph-name="Thorn" unicode="&#xde;" 
 />
    <glyph glyph-name="germandbls" unicode="&#xdf;" 
 />
    <glyph glyph-name="agrave" unicode="&#xe0;" horiz-adv-x="719" 
d="M403 699q10 17 -6 26q-92 76 -197 159q-12 7 -26 7q-21 0 -35.5 -14.5t-14.5 -34.5q0 -28 24 -43q53 -24 227 -106q6 -3 15 -2q9 2 13 8zM627 5q0 -4 -5 -5h-131q-110 0 -124 70q-89 -70 -172 -70t-144 52q-65 56 -58 137q8 108 111 149q64 25 140 25q87 0 125 -22
q1 69 -1 83q-4 42 -26.5 71t-67.5 37q-17 3 -21 3q-103 0 -217 -127q-8 -7 -11 1v116q-1 8 8 13q146 53 245 54q78 1 111 -5q118 -22 142 -148q8 -40 8 -142v-90q0 -101 8 -131q16 -62 74 -66q6 -1 6 -5zM259 100q66 0 109 49q1 14 0 114q0 20 -42 31q-30 8 -57 8
q-124 0 -124 -102q0 -7 3 -25q6 -37 40 -58q30 -17 71 -17z" />
    <glyph glyph-name="aacute" unicode="&#xe1;" horiz-adv-x="719" 
d="M213 699q-10 17 6 26q92 76 197 159q12 7 26 7q20 0 34.5 -14.5t14.5 -34.5q0 -28 -24 -43q-20 -12 -224 -109q-6 -3 -11 -3q-12 0 -19 12zM643 5q0 -4 -5 -5h-131q-110 0 -124 70q-89 -70 -172 -70t-144 52q-65 56 -58 137q8 108 111 149q64 25 140 25q87 0 125 -22
q1 69 -1 83q-4 42 -26.5 71t-67.5 37q-17 3 -21 3q-103 0 -217 -127q-8 -7 -11 1v116q-1 8 8 13q146 53 245 54q78 1 111 -5q118 -22 142 -148q8 -40 8 -142v-90q0 -101 8 -131q16 -62 74 -66q6 -1 6 -5zM275 100q66 0 109 49q1 14 0 114q0 20 -42 31q-30 8 -57 8
q-124 0 -124 -102q0 -7 3 -25q6 -37 40 -58q30 -17 71 -17z" />
    <glyph glyph-name="acircumflex" unicode="&#xe2;" horiz-adv-x="719" 
d="M468 720q-73 64 -157 135q-9 6 -20 7h-1h-1q-11 -1 -20 -7q-36 -32 -157 -135q-12 -8 -5 -22q9 -14 22 -5q66 32 161 80q45 -22 161 -80q14 -9 22 5t-5 22zM627 5q0 -4 -5 -5h-131q-110 0 -124 70q-89 -70 -172 -70t-144 52q-65 56 -58 137q8 108 111 149q64 25 140 25
q87 0 125 -22q1 69 -1 83q-4 42 -26.5 71t-67.5 37q-17 3 -21 3q-103 0 -217 -127q-8 -7 -11 1v116q-1 8 8 13q146 53 245 54q78 1 111 -5q118 -22 142 -148q8 -40 8 -142v-90q0 -101 8 -131q16 -62 74 -66q6 -1 6 -5zM259 100q66 0 109 49q1 14 0 114q0 20 -42 31
q-30 8 -57 8q-124 0 -124 -102q0 -7 3 -25q6 -37 40 -58q30 -17 71 -17z" />
    <glyph glyph-name="atilde" unicode="&#xe3;" horiz-adv-x="719" 
d="M568 885q-11 12 -26 12q-14 0 -24 -10t-10 -24t10 -24.5t24 -9.5q2 0 9 1q14 -16 14 -34q0 -20 -15 -33.5t-40 -13.5q-20 0 -42 10l-252 115q-38 18 -72 18q-53 0 -86 -37.5t-33 -86.5q0 -47 31 -78q10 -9 24 -9t24 9.5t10 23.5t-10 24t-24 10q-4 0 -9 -1q-14 15 -14 33
q0 20 15.5 33.5t40.5 13.5q20 0 42 -10l252 -115q37 -18 71 -18q54 0 89 40q32 36 32 84q0 47 -31 77zM643 5q0 -4 -5 -5h-131q-110 0 -124 70q-89 -70 -172 -70t-144 52q-65 56 -58 137q8 108 111 149q64 25 140 25q87 0 125 -22q1 69 -1 83q-4 42 -26.5 71t-67.5 37
q-17 3 -21 3q-103 0 -217 -127q-8 -7 -11 1v116q-1 8 8 13q146 53 245 54q78 1 111 -5q118 -22 142 -148q8 -40 8 -142v-90q0 -101 8 -131q16 -62 74 -66q6 -1 6 -5zM275 100q66 0 109 49q1 14 0 114q0 20 -42 31q-30 8 -57 8q-124 0 -124 -102q0 -7 3 -25q6 -37 40 -58
q30 -17 71 -17z" />
    <glyph glyph-name="adieresis" unicode="&#xe4;" horiz-adv-x="719" 
d="M605 776q0 -34 -24 -58.5t-59 -24.5t-59 24.5t-24 58.5q0 35 24 59.5t59 24.5t59 -24.5t24 -59.5zM333 776q0 -34 -24 -58.5t-59 -24.5t-59 24.5t-24 58.5q0 35 24 59.5t59 24.5t59 -24.5t24 -59.5zM675 5q0 -4 -5 -5h-131q-110 0 -124 70q-89 -70 -172 -70t-144 52
q-65 56 -58 137q8 108 111 149q64 25 140 25q87 0 125 -22q1 69 -1 83q-4 42 -26.5 71t-67.5 37q-17 3 -21 3q-103 0 -217 -127q-8 -7 -11 1v116q-1 8 8 13q146 53 245 54q78 1 111 -5q118 -22 142 -148q8 -40 8 -142v-90q0 -101 8 -131q16 -62 74 -66q6 -1 6 -5zM307 100
q66 0 109 49q1 14 0 114q0 20 -42 31q-30 8 -57 8q-124 0 -124 -102q0 -7 3 -25q6 -37 40 -58q30 -17 71 -17z" />
    <glyph glyph-name="aring" unicode="&#xe5;" horiz-adv-x="719" 
d="M311 694q45 0 76.5 31t31.5 75t-31.5 75t-76.5 31t-76.5 -31t-31.5 -75t31.5 -75t76.5 -31zM311 864q27 0 46 -19t19 -45t-19 -45t-46 -19t-46 19t-19 45t19 45t46 19zM627 5q0 -4 -5 -5h-131q-110 0 -124 70q-89 -70 -172 -70t-144 52q-65 56 -58 137q8 108 111 149
q64 25 140 25q87 0 125 -22q1 69 -1 83q-4 42 -26.5 71t-67.5 37q-17 3 -21 3q-103 0 -217 -127q-8 -7 -11 1v116q-1 8 8 13q146 53 245 54q78 1 111 -5q118 -22 142 -148q8 -40 8 -142v-90q0 -101 8 -131q16 -62 74 -66q6 -1 6 -5zM259 100q66 0 109 49q1 14 0 114
q0 20 -42 31q-30 8 -57 8q-124 0 -124 -102q0 -7 3 -25q6 -37 40 -58q30 -17 71 -17z" />
    <glyph glyph-name="ae" unicode="&#xe6;" 
 />
    <glyph glyph-name="ccedilla" unicode="&#xe7;" horiz-adv-x="611" 
d="M234 6zM314 5zM314 5l-53 -33q113 -8 116 -82q-23 -116 -187 -116q-18 0 -37 1v19q119 17 129 86q-3 20 -14 36q-28 37 -99 45l65 45zM147 396q0 -9 2.5 -62.5t2.5 -65.5q0 -101 53 -162q49 -57 123 -57q84 0 151 75l46 -1q-72 -149 -272 -138q-152 8 -222 104
q-54 75 -52 223q2 146 76 223q80 81 233 72q114 -6 224 -71q9 -5 8 -15l-8 -131q-2 -5 -6 -7t-6 2q-38 78 -96.5 123.5t-122.5 45.5q-135 0 -134 -158z" />
    <glyph glyph-name="egrave" unicode="&#xe8;" horiz-adv-x="633" 
d="M400 707q10 17 -6 26q-92 75 -197 159q-12 7 -26 7q-21 0 -35.5 -14.5t-14.5 -35.5q0 -27 24 -42q53 -24 227 -106q6 -4 15 -2t13 8zM517 258l-350 -1q14 -101 58 -155q33 -39 98 -45q123 -5 183 80l46 1q-64 -153 -264 -153q-147 0 -221 84q-71 80 -71 228q0 147 71 227
q76 85 221 85q137 0 213.5 -75t78.5 -212q1 -64 -63 -64zM375 498q-45 57 -106 57q-111 0 -111 -157q0 -29 4 -61h252q2 15 2 32q0 75 -41 129z" />
    <glyph glyph-name="eacute" unicode="&#xe9;" horiz-adv-x="653" 
d="M209 708q-10 17 6 26q92 75 197 159q12 7 26 7q21 0 35.5 -14.5t14.5 -34.5q0 -28 -24 -43q-53 -24 -227 -106q-6 -3 -15 -2q-9 2 -13 8zM525 258l-350 -1q14 -101 58 -155q33 -39 98 -45q123 -5 183 80l46 1q-64 -153 -264 -153q-147 0 -221 84q-71 80 -71 228
q0 147 71 227q76 85 221 85q137 0 213.5 -75t78.5 -212q1 -64 -63 -64zM383 498q-45 57 -106 57q-111 0 -111 -157q0 -29 4 -61h252q2 15 2 32q0 75 -41 129z" />
    <glyph glyph-name="ecircumflex" unicode="&#xea;" horiz-adv-x="653" 
d="M477 717q-73 64 -157 135q-9 6 -20 7h-1h-1q-11 -1 -20 -7q-36 -32 -157 -135q-13 -8 -5 -22t22 -5q66 32 161 80q44 -22 161 -80q13 -9 22 5q7 14 -5 22zM517 258l-350 -1q14 -101 58 -155q33 -39 98 -45q123 -5 183 80l46 1q-64 -153 -264 -153q-147 0 -221 84
q-71 80 -71 228q0 147 71 227q76 85 221 85q137 0 213.5 -75t78.5 -212q1 -64 -63 -64zM375 498q-45 57 -106 57q-111 0 -111 -157q0 -29 4 -61h252q2 15 2 32q0 75 -41 129z" />
    <glyph glyph-name="edieresis" unicode="&#xeb;" horiz-adv-x="653" 
d="M515 777q0 -35 -24.5 -59.5t-59.5 -24.5t-59.5 24.5t-24.5 59.5q0 34 24.5 58.5t59.5 24.5t59.5 -24.5t24.5 -58.5zM242 777q0 -35 -24.5 -59.5t-59.5 -24.5t-59.5 24.5t-24.5 59.5q0 34 24.5 58.5t59.5 24.5t59.5 -24.5t24.5 -58.5zM517 258l-350 -1q14 -101 58 -155
q33 -39 98 -45q123 -5 183 80l46 1q-64 -153 -264 -153q-147 0 -221 84q-71 80 -71 228q0 147 71 227q76 85 221 85q137 0 213.5 -75t78.5 -212q1 -64 -63 -64zM375 498q-45 57 -106 57q-111 0 -111 -157q0 -29 4 -61h252q2 15 2 32q0 75 -41 129z" />
    <glyph glyph-name="igrave" unicode="&#xec;" horiz-adv-x="444" 
d="M269 368q0 85 7 119q17 80 74 91q5 1 5 5t-4 5h-351q-4 -1 -4 -5t5 -5q84 -16 106 -80q10 -30 10 -130v-149q0 -84 -7 -118q-16 -80 -73 -91q-5 -1 -5 -5t4 -5h351q4 1 4 5t-5 5q-84 16 -106 79q-11 31 -11 130v149zM189 699q10 17 -6 26q-92 76 -197 159q-12 7 -26 7
q-21 0 -35.5 -14.5t-14.5 -34.5q0 -28 24 -43q53 -24 227 -106q6 -3 15 -2q9 2 13 8z" />
    <glyph glyph-name="iacute" unicode="&#xed;" horiz-adv-x="444" 
d="M260 368q0 85 7 119q17 80 74 91q5 1 5 5t-4 5h-351q-4 -1 -4 -5t5 -5q84 -16 106 -80q10 -30 10 -130v-149q0 -84 -7 -118q-16 -80 -73 -91q-5 -1 -5 -5t4 -5h351q4 1 4 5t-5 5q-84 16 -106 79q-11 31 -11 130v149zM168 700q-10 17 6 26q92 75 197 159q12 7 26 7
q21 0 35.5 -14.5t14.5 -35.5q0 -28 -24 -42q-53 -24 -227 -106q-6 -4 -15 -2t-13 8z" />
    <glyph glyph-name="icircumflex" unicode="&#xee;" horiz-adv-x="444" 
d="M367 721q-73 64 -157 135q-9 6 -20 6h-1h-1q-11 0 -20 -6q-36 -33 -157 -135q-12 -8 -5 -23q9 -14 22 -5q66 33 161 80q45 -22 161 -80q14 -9 22 5q8 15 -5 23zM269 368q0 85 7 119q17 80 74 91q5 1 5 5t-4 5h-351q-4 -1 -4 -5t5 -5q84 -16 106 -80q10 -30 10 -130v-149
q0 -84 -7 -118q-16 -80 -73 -91q-5 -1 -5 -5t4 -5h351q4 1 4 5t-5 5q-84 16 -106 79q-11 31 -11 130v149z" />
    <glyph glyph-name="idieresis" unicode="&#xef;" horiz-adv-x="500" 
d="M260 368q0 85 7 119q17 80 74 91q5 1 5 5t-4 5h-351q-4 -1 -4 -5t5 -5q84 -16 106 -80q10 -30 10 -130v-149q0 -84 -7 -118q-17 -80 -73 -91q-5 -1 -5 -5t4 -5h351q4 1 4 5t-5 5q-84 16 -106 79q-11 31 -11 130v149zM420 774q0 -35 -24.5 -59.5t-58.5 -24.5
q-35 0 -59.5 24.5t-24.5 59.5q0 34 24.5 58.5t59.5 24.5q34 0 58.5 -24.5t24.5 -58.5zM147 774q0 -35 -24.5 -59.5t-58.5 -24.5q-35 0 -59.5 24.5t-24.5 59.5q0 34 24.5 58.5t59.5 24.5q34 0 58.5 -24.5t24.5 -58.5z" />
    <glyph glyph-name="eth" unicode="&#xf0;" 
 />
    <glyph glyph-name="ntilde" unicode="&#xf1;" horiz-adv-x="837" 
d="M624 896q-10 12 -26 12q-14 0 -24 -10t-10 -24t10 -24t24 -10q2 0 9 1q15 -15 15 -34t-15.5 -33t-40.5 -14q-20 0 -42 10l-252 116q-38 17 -72 17q-53 0 -86 -37.5t-33 -86.5q0 -47 31 -77q10 -10 24 -10t24 10t10 24t-10 23.5t-24 9.5q-4 0 -9 -1q-13 15 -13 33
q0 20 15 34t40 14q20 0 42 -11l252 -115q38 -17 72 -17q53 0 88 39q32 36 32 85q0 46 -31 76zM364 522q-90 0 -90 -112v-199q0 -95 12 -127q23 -60 105 -77q5 -1 6 -5q0 -4 -5 -5h-374q-4 1 -4 5t5 5q58 12 75 92q7 34 7 121v149q0 100 -11 132q-23 64 -107 80q-5 1 -5 5
t4 4h292v-63q86 74 227 65q77 -6 110 -50.5t33 -137.5q-2 -14 0 -188q1 -88 14 -130q20 -62 73 -79q5 -2 5 -5q0 -4 -4 -5h-191q-72 0 -70 217v116q0 103 -24.5 147.5t-82.5 44.5z" />
    <glyph glyph-name="ograve" unicode="&#xf2;" horiz-adv-x="618" 
d="M307 593q-156 0 -235 -87q-70 -77 -70 -211q0 -135 67 -211q78 -87 238 -87q161 0 238 87q68 76 68 211q0 134 -70 211q-79 87 -236 87zM369 50q-16 -6 -32 -6q-56 0 -100 68q-41 62 -57 152q-9 56 -9 104q0 163 104 170q53 4 98.5 -55.5t62.5 -153.5q9 -57 9 -107
q0 -143 -76 -172zM399 699q10 17 -6 26q-92 76 -197 159q-12 7 -26 7q-21 0 -35.5 -14.5t-14.5 -34.5q0 -28 24 -43q53 -24 227 -106q6 -3 15 -2q9 2 13 8z" />
    <glyph glyph-name="oacute" unicode="&#xf3;" horiz-adv-x="711" 
d="M332 597q-156 0 -235 -87q-70 -78 -70 -211q0 -135 67 -211q78 -88 238 -88q161 0 238 88q68 76 68 211q0 133 -70 211q-79 87 -236 87zM394 54q-16 -6 -32 -6q-56 0 -100 68q-41 62 -57 152q-9 56 -9 104q0 163 104 170q53 3 98.5 -56t62.5 -154q9 -57 9 -106
q0 -143 -76 -172zM253 704q-10 16 6 26q92 75 197 158q12 7 26 7q21 0 35.5 -14.5t14.5 -34.5q0 -28 -24 -42q-53 -24 -227 -107q-6 -3 -15 -1t-13 8z" />
    <glyph glyph-name="ocircumflex" unicode="&#xf4;" horiz-adv-x="598" 
d="M300 593q-156 0 -235 -87q-70 -77 -70 -211q0 -135 67 -211q78 -87 238 -87q161 0 238 87q68 76 68 211q0 134 -70 211q-79 87 -236 87zM362 50q-16 -6 -32 -6q-56 0 -100 68q-41 62 -57 152q-9 56 -9 104q0 163 104 170q53 4 98.5 -55.5t62.5 -153.5q9 -57 9 -107
q0 -143 -76 -172zM484 721q-73 64 -157 135q-9 6 -20 6h-1h-1q-11 0 -20 -6q-36 -33 -157 -135q-12 -8 -5 -23q9 -14 22 -5q66 33 161 80q45 -22 161 -80q14 -9 22 5q8 15 -5 23z" />
    <glyph glyph-name="otilde" unicode="&#xf5;" horiz-adv-x="691" 
d="M300 593q-156 0 -235 -87q-70 -77 -70 -211q0 -135 67 -211q78 -87 238 -87q161 0 238 87q68 76 68 211q0 134 -70 211q-79 87 -236 87zM362 50q-16 -6 -32 -6q-56 0 -100 68q-41 62 -57 152q-9 56 -9 104q0 163 104 170q53 4 98.5 -55.5t62.5 -153.5q9 -57 9 -107
q0 -143 -76 -172zM561 887q-11 12 -26 12q-14 0 -24 -10t-10 -24t10 -24.5t24 -9.5q2 0 9 1q15 -16 15 -34q0 -20 -15.5 -33.5t-40.5 -13.5q-20 0 -42 10l-252 115q-38 18 -72 18q-53 0 -86 -37.5t-33 -86.5q0 -47 31 -78q10 -9 24 -9t24 9.5t10 23.5t-10 24t-24 10
q-4 0 -9 -1q-13 15 -13 33q0 20 15 33.5t40 13.5q20 0 42 -10l252 -115q38 -17 72 -17q53 0 88 39q32 36 32 84q0 47 -31 77z" />
    <glyph glyph-name="odieresis" unicode="&#xf6;" horiz-adv-x="659" 
d="M325 593q-156 0 -235 -87q-70 -77 -70 -211q0 -135 67 -211q78 -87 238 -87q161 0 238 87q68 76 68 211q0 134 -70 211q-79 87 -236 87zM387 50q-16 -6 -32 -6q-56 0 -100 68q-41 62 -57 152q-9 56 -9 104q0 163 104 170q53 4 98.5 -55.5t62.5 -153.5q9 -57 9 -107
q0 -143 -76 -172zM533 777q0 -35 -24.5 -59.5t-59.5 -24.5t-59.5 24.5t-24.5 59.5q0 34 24.5 58.5t59.5 24.5t59.5 -24.5t24.5 -58.5zM260 777q0 -35 -24.5 -59.5t-59.5 -24.5q-34 0 -59 24.5t-25 59.5q0 34 25 58.5t59 24.5q35 0 59.5 -24.5t24.5 -58.5z" />
    <glyph glyph-name="divide" unicode="&#xf7;" horiz-adv-x="412" 
d="M397 449q25 0 27 -10q0 -2 1 -1v93q-1 1 -1 -1q-3 -14 -27 -14h-396q-24 0 -26 10q-1 1 -1 0v-92q1 -1 1 0q3 15 26 15h396zM255 637q0 -23 -16.5 -39.5t-39.5 -16.5t-39 16.5t-16 39.5t16 39t39 16t39.5 -16t16.5 -39zM255 328q0 -23 -16.5 -39.5t-39.5 -16.5t-39 16.5
t-16 39.5t16 39t39 16t39.5 -16t16.5 -39z" />
    <glyph glyph-name="oslash" unicode="&#xf8;" horiz-adv-x="894" 
d="M394 795zM457 789q-222 0 -334 -116q-99 -102 -99 -278q0 -178 95 -278q110 -115 338 -115q227 0 337 115q95 100 95 278q0 176 -99 278q-111 116 -333 116zM426 734q101 0 180 -86l-348 -433q-55 107 -55 247q0 120 48 190q57 82 175 82zM541 55q-26 -6 -51 -6
q-105 0 -183 92l350 436q54 -101 54 -243q0 -110 -39 -181q-44 -79 -131 -98z" />
    <glyph glyph-name="ugrave" unicode="&#xf9;" horiz-adv-x="823" 
d="M421 697q10 16 -6 25q-92 76 -197 159q-12 7 -26 7q-20 0 -34.5 -14.5t-14.5 -34.5q0 -28 24 -43q52 -24 226 -106q6 -3 15 -1t13 8zM743 4q-84 16 -106 80q-11 32 -11 131v370h-290q-5 -1 -5 -5q1 -4 6 -5q82 -16 104 -76q12 -32 12 -127v-161q0 -69 -16 -103
q-23 -45 -82 -45q-56 0 -78 48q-19 43 -19 143v115q1 216 -131 216h-129q-4 -1 -4 -5q0 -3 5 -5q53 -16 72 -78q14 -46 14 -130v-140q0 -204 143 -233q31 -7 61 -7q112 0 164 71q25 -59 102 -63h189q4 0 4 4t-5 5z" />
    <glyph glyph-name="uacute" unicode="&#xfa;" horiz-adv-x="823" 
d="M269 699q-10 17 6 26q92 76 197 159q12 7 26 7q21 0 35.5 -14.5t14.5 -34.5q0 -28 -24 -43q-53 -24 -227 -106q-6 -3 -15 -2q-9 2 -13 8zM743 4q-84 16 -106 80q-11 32 -11 131v370h-290q-5 -1 -5 -5q1 -4 6 -5q82 -16 104 -76q12 -32 12 -127v-161q0 -69 -16 -103
q-23 -45 -82 -45q-56 0 -78 48q-19 43 -19 143v115q1 216 -131 216h-129q-4 -1 -4 -5q0 -3 5 -5q53 -16 72 -78q14 -46 14 -130v-140q0 -204 143 -233q31 -7 61 -7q112 0 164 71q25 -59 102 -63h189q4 0 4 4t-5 5z" />
    <glyph glyph-name="ucircumflex" unicode="&#xfb;" horiz-adv-x="823" 
d="M515 721q-73 64 -157 135q-9 6 -20 6h-1h-1q-11 0 -20 -6q-36 -33 -157 -135q-13 -8 -5 -23q8 -14 22 -5q66 33 161 80q44 -22 161 -80q13 -9 22 5q7 15 -5 23zM743 4q-84 16 -106 80q-11 32 -11 131v370h-290q-5 -1 -5 -5q1 -4 6 -5q82 -16 104 -76q12 -32 12 -127v-161
q0 -69 -16 -103q-23 -45 -82 -45q-56 0 -78 48q-19 43 -19 143v115q1 216 -131 216h-129q-4 -1 -4 -5q0 -3 5 -5q53 -16 72 -78q14 -46 14 -130v-140q0 -204 143 -233q31 -7 61 -7q112 0 164 71q25 -59 102 -63h189q4 0 4 4t-5 5z" />
    <glyph glyph-name="udieresis" unicode="&#xfc;" horiz-adv-x="823" 
d="M536 777q0 -35 -24.5 -59.5t-59.5 -24.5q-34 0 -58.5 24.5t-24.5 59.5q0 34 24.5 58.5t58.5 24.5q35 0 59.5 -24.5t24.5 -58.5zM263 777q0 -35 -24.5 -59.5t-59.5 -24.5q-34 0 -58.5 24.5t-24.5 59.5q0 34 24.5 58.5t58.5 24.5q35 0 59.5 -24.5t24.5 -58.5zM743 4
q-84 16 -106 80q-11 32 -11 131v370h-290q-5 -1 -5 -5q1 -4 6 -5q82 -16 104 -76q12 -32 12 -127v-161q0 -69 -16 -103q-23 -45 -82 -45q-56 0 -78 48q-19 43 -19 143v115q1 216 -131 216h-129q-4 -1 -4 -5q0 -3 5 -5q53 -16 72 -78q14 -46 14 -130v-140q0 -204 143 -233
q31 -7 61 -7q112 0 164 71q25 -59 102 -63h189q4 0 4 4t-5 5z" />
    <glyph glyph-name="yacute" unicode="&#xfd;" horiz-adv-x="860" 
d="M889 588h-307q-4 -1 -4 -5t5 -5q81 -15 81 -69q0 -22 -13.5 -58t-27.5 -70q-47 -131 -104 -227l-115 227q-29 58 -29 116q0 71 56 81q5 1 5 5t-4 5h-386q-4 -1 -4 -5t5 -5q77 -17 131 -79q36 -42 77 -127l170 -353q-60 -73 -133 -131q-84 -66 -231 -131
q-119 -52 -193 -70q-5 -1 -5 -5t4 -5l315 1q167 121 294 282t251 407q29 60 57 119q48 82 104 92q5 1 5 5t-4 5zM448 709q-10 16 6 25q92 76 197 159q12 7 26 7q20 0 34.5 -14.5t14.5 -34.5q0 -28 -23 -43q-53 -24 -227 -106q-6 -3 -15 -1t-13 8z" />
    <glyph glyph-name="thorn" unicode="&#xfe;" 
 />
    <glyph glyph-name="ydieresis" unicode="&#xff;" horiz-adv-x="818" 
d="M661 804q0 -35 -24.5 -59.5t-59.5 -24.5t-59.5 24.5t-24.5 59.5q0 34 24.5 58.5t59.5 24.5t59.5 -24.5t24.5 -58.5zM388 804q0 -35 -24.5 -59.5t-59.5 -24.5q-34 0 -59 24.5t-25 59.5q0 34 25 58.5t59 24.5q35 0 59.5 -24.5t24.5 -58.5zM848 588h-307q-4 -1 -4 -5t5 -5
q81 -15 81 -69q0 -22 -13.5 -58t-27.5 -70q-47 -131 -104 -227l-115 227q-29 58 -29 116q0 71 56 81q5 1 5 5t-4 5h-386q-4 -1 -4 -5t5 -5q77 -17 131 -79q36 -42 77 -127l170 -353q-60 -73 -133 -131q-84 -66 -231 -131q-119 -52 -193 -70q-5 -1 -5 -5t4 -5l315 1
q167 121 294 282t251 407q29 60 57 119q48 82 104 92q5 1 5 5t-4 5z" />
    <glyph glyph-name="dotlessi" unicode="&#x131;" horiz-adv-x="414" 
d="M243 368q0 85 7 119q17 80 74 91q5 1 5 5t-4 5h-351q-4 -1 -4 -5t5 -5q84 -16 106 -80q10 -30 10 -130v-149q0 -84 -7 -118q-16 -80 -73 -91q-5 -1 -5 -5t4 -5h351q4 1 4 5t-5 5q-84 16 -106 79q-11 31 -11 130v149z" />
    <glyph glyph-name="Lslash" unicode="&#x141;" 
 />
    <glyph glyph-name="lslash" unicode="&#x142;" 
 />
    <glyph glyph-name="OE" unicode="&#x152;" horiz-adv-x="1305" 
d="M1243 183q-1 5 -5 5q-4 -1 -5 -6q-17 -85 -82 -108q-31 -11 -133 -11h-155q-20 28 -25 75q-2 21 -2 88v165l92 -1q116 -1 164 -47q7 -6 6 -6q4 0 4 5v157q0 6 -4 6q1 0 -6 -7q-48 -46 -164 -47h-92v129q0 116 21 162h179q66 -11 104 -42.5t57 -94.5q12 -4 14 8v161
q0 12 -13 18v0q-51 14 -135 14l-521 -2h-2q-79 7 -158 3q-183 -9 -283 -105q-119 -114 -119 -291q0 -176 104 -289q112 -121 306 -121h853v182zM440 52q-101 4 -173 94t-90 227q-7 58 -7 109q0 235 159 262q45 8 84 8q128 0 247 -95q2 -31 2 -77v-354q0 -90 -10 -132
q-99 -46 -212 -42z" />
    <glyph glyph-name="oe" unicode="&#x153;" 
 />
    <glyph glyph-name="Scaron" unicode="&#x160;" horiz-adv-x="594" 
d="M405 469l-224 95q-83 39 -83 104q0 27 15 51q33 53 117 53q76 0 136 -41q90 -61 115 -139q11 -4 13 8v174q-119 36 -227 36q-223 0 -266 -160q-12 -43 -12 -79q0 -119 137 -183q87 -33 206 -84q84 -46 84 -124q0 -18 -5 -35q-14 -52 -65 -81q-46 -27 -103 -27
q-75 0 -133 41t-70 103q-1 5 -5 5t-4 -4v-183l264 -1q77 0 148 48q92 62 106 172q2 17 2 32q0 77 -44 138q-39 54 -102 81zM456 981q0 -33 -23.5 -56.5t-55.5 -23.5q-33 0 -56 23.5t-23 56.5t23 56.5t56 23.5q32 0 55.5 -23.5t23.5 -56.5zM198 981q0 -33 -23 -56.5
t-56 -23.5t-56 23.5t-23 56.5t23 56.5t56 23.5t56 -23.5t23 -56.5z" />
    <glyph glyph-name="scaron" unicode="&#x161;" horiz-adv-x="613" 
d="M358 -8q-139 0 -259 43l-1 149q2 11 10 -1q49 -69 121 -114q42 -26 104 -31q37 -3 72.5 18.5t41.5 50.5q2 9 2 18q0 77 -158 115q-220 51 -220 184q0 23 6 47q29 118 218 118q142 0 258 -52v-131q-1 -11 -10 1q-49 70 -120 115q-50 31 -123 31q-75 0 -95 -39
q-12 -23 -12 -42q0 -72 169 -105q240 -47 224 -211q-8 -84 -94 -130q-64 -34 -134 -34zM520 834q-73 -64 -157 -135q-9 -6 -20 -6h-1h-1q-11 0 -20 6q-36 33 -157 135q-13 8 -5 22q8 15 22 6q66 -33 161 -80q44 21 161 80q14 9 22 -6q8 -14 -5 -22z" />
    <glyph glyph-name="Ydieresis" unicode="&#x178;" horiz-adv-x="866" 
d="M583 984q0 -34 -24 -58.5t-59 -24.5q-34 0 -58.5 24.5t-24.5 58.5q0 35 24.5 59.5t58.5 24.5q35 0 59 -24.5t24 -59.5zM311 984q0 -34 -24 -58.5t-59 -24.5t-59 24.5t-24 58.5q0 35 24 59.5t59 24.5t59 -24.5t24 -59.5zM805 798h-345q-4 0 -4 -4t5 -5q27 -5 44 -26.5
t17 -47.5q0 -21 -11 -39q-1 -3 -121 -277l-160 276q-11 18 -11 38q0 27 17 48t44 27q5 0 6 5q0 4 -5 4h-430q-4 0 -4 -4q0 -5 5 -5q106 -21 194 -128q34 -61 69 -121q79 -134 139 -221q1 -53 0 -98q-2 -91 -8 -121q-17 -81 -74 -92q-5 -1 -5 -5t4 -5h375q5 1 5 5t-6 5
q-84 16 -107 81q-11 30 -11 132v136q55 83 123 201l60 104q88 108 194 128q5 1 5 5t-4 4z" />
    <glyph glyph-name="Zcaron" unicode="&#x17d;" horiz-adv-x="760" 
d="M22 686zM22 654q1 -4 5 -4t5 5q11 58 93 75q35 7 122 7h182q3 -14 -8 -41q-13 -30 -27 -60l-236 -424q-36 -66 -56 -98q-41 -66 -75 -108q-4 -1 -4 -5t4 -4h667v146q-1 4 -5 4t-5 -5q-11 -58 -93 -75q-35 -8 -121 -8h-118q-53 0 -53 48q0 30 25 90l348 603h-650v-146z
M194 985q93 -121 165 -121q34 0 81.5 35.5t81.5 85.5q9 10 3 20q-7 11 -19 4q-82 -64 -148 -69q-19 1 -41 9q-52 17 -107 60q-13 7 -19 -4q-6 -9 3 -20z" />
    <glyph glyph-name="zcaron" unicode="&#x17e;" horiz-adv-x="678" 
d="M26 446q1 -4 5 -4t5 5q11 58 92 74q34 8 120 8h93q33 0 33 -21q0 -22 -41 -66l-335 -431q-7 -10 4 -10h597v144q-1 4 -5 4t-5 -5q-16 -87 -212 -81l-69 2q-43 1 -43 31q0 28 39 66l326 428h-604v-144z" />
    <glyph glyph-name="florin" unicode="&#x192;" 
 />
    <glyph glyph-name="circumflex" unicode="&#x2c6;" horiz-adv-x="347" 
d="M368 924q-73 64 -157 135q-9 6 -20 6h-1h-1q-11 0 -20 -6q-36 -32 -157 -135q-13 -8 -5 -22t22 -5q66 32 161 80q44 -22 161 -80q13 -9 22 5q8 14 -5 22z" />
    <glyph glyph-name="caron" unicode="&#x2c7;" horiz-adv-x="444" 
d="M356 839q-73 -64 -157 -135q-9 -6 -20 -6h-1h-1q-11 0 -20 6q-36 33 -158 135q-12 8 -4 22q8 15 22 6q65 -33 161 -80q44 21 161 80q13 9 21 -6q8 -14 -4 -22z" />
    <glyph glyph-name="breve" unicode="&#x2d8;" horiz-adv-x="456" 
d="M489 1036q-8 13 -22 5q-88 -82 -148 -82q-61 0 -149 82q-13 8 -21 -5q-7 -11 2 -24q76 -112 168 -112t168 112q8 13 2 24z" />
    <glyph glyph-name="dotaccent" unicode="&#x2d9;" horiz-adv-x="498" 
d="M340 709q18 0 30.5 12.5t12.5 29.5q0 18 -12.5 30.5t-30.5 12.5t-31 -12.5t-13 -30.5q0 -17 13 -29.5t31 -12.5zM340 777q26 0 26 -26q0 -25 -26 -25t-26 25q0 26 26 26z" />
    <glyph glyph-name="ring" unicode="&#x2da;" horiz-adv-x="431" 
d="M354 897q45 0 77 31t32 75t-32 75t-77 31q-44 0 -76 -31t-32 -75t32 -75t76 -31zM354 1066q27 0 46 -18.5t19 -44.5q0 -27 -19 -45.5t-46 -18.5q-26 0 -45 18.5t-19 45.5q0 26 19 44.5t45 18.5z" />
    <glyph glyph-name="ogonek" unicode="&#x2db;" horiz-adv-x="493" 
d="M388 -4l117 -83q-145 -17 -156 -112q4 -28 23 -51q45 -53 156 -69v-26q-27 -2 -52 -2q-153 0 -221 80q-28 34 -37 81q1 30 16 53q38 54 144 62l-110 71h75z" />
    <glyph glyph-name="tilde" unicode="&#x2dc;" horiz-adv-x="535" 
d="M543 1104q-10 12 -26 12q-14 0 -24 -10t-10 -24t10 -24.5t24 -9.5q2 0 9 1q15 -15 15 -34t-15.5 -33t-40.5 -14q-20 0 -42 10l-252 116q-38 17 -72 17q-53 0 -86 -37.5t-33 -86.5q0 -47 31 -77q10 -10 24 -10t24 10t10 24t-10 23.5t-24 9.5q-4 0 -9 -1q-13 15 -13 33
q0 20 15 34t40 14q20 0 42 -11l252 -115q38 -17 72 -17q53 0 88 39q32 36 32 85q0 46 -31 76z" />
    <glyph glyph-name="hungarumlaut" unicode="&#x2dd;" horiz-adv-x="711" 
d="M346 705q-10 16 6 26q92 75 197 158q12 7 26 7q20 0 34.5 -14.5t14.5 -34.5q0 -28 -24 -43q-52 -24 -226 -106q-6 -3 -15 -1t-13 8zM111 708q-10 16 6 26q92 75 197 158q12 7 26 7q21 0 35 -14.5t14 -34.5q0 -28 -23 -42q-53 -24 -227 -107q-6 -3 -15 -1t-13 8z" />
    <glyph glyph-name="Delta" unicode="&#x394;" 
 />
    <glyph glyph-name="Delta" unicode="&#x2206;" 
 />
    <glyph glyph-name="Omega" unicode="&#x3a9;" 
 />
    <glyph glyph-name="Omega" unicode="&#x2126;" 
 />
    <glyph glyph-name="pi" unicode="&#x3c0;" 
 />
    <glyph glyph-name="endash" unicode="&#x2013;" 
 />
    <glyph glyph-name="emdash" unicode="&#x2014;" 
 />
    <glyph glyph-name="quoteleft" unicode="&#x2018;" horiz-adv-x="183" 
d="M-10 720q4 36 31.5 61t64.5 25q40 0 68 -28.5t28 -68.5q0 -36 -24 -63t-59 -32l-1 -1q-2 -5 -2 -11q0 -36 63 -56q11 -2 12 -16q-2 -13 -21 -11q-72 17 -117.5 64.5t-45.5 107.5q0 14 3 29z" />
    <glyph glyph-name="quoteright" unicode="&#x2019;" horiz-adv-x="188" 
d="M174 720q-4 36 -31 61t-65 25q-39 0 -67.5 -28.5t-28.5 -68.5q0 -36 24 -63t60 -32v-1q2 -5 2 -11q0 -36 -63 -56q-10 -2 -11 -16q1 -13 20 -11q72 17 117.5 64.5t45.5 107.5q0 14 -3 29z" />
    <glyph glyph-name="quotesinglbase" unicode="&#x201a;" horiz-adv-x="280" 
d="M182 607q-4 36 -31 61t-65 25q-39 0 -67.5 -28.5t-28.5 -68.5q0 -36 24 -63.5t60 -31.5v-1q2 -5 2 -11q0 -37 -63 -56q-10 -2 -11 -16q1 -13 20 -12q72 18 117.5 65.5t45.5 107.5q0 14 -3 29z" />
    <glyph glyph-name="quotedblleft" unicode="&#x201c;" horiz-adv-x="422" 
d="M229 720q4 36 31.5 61t64.5 25q40 0 68 -28.5t28 -68.5q0 -36 -24 -63t-59 -32q-1 0 -1 -1q-2 -5 -2 -11q0 -36 63 -56q11 -2 11 -16q-1 -13 -20 -11q-72 17 -117.5 64.5t-45.5 107.5q0 14 3 29zM-17 720q4 36 31.5 61t64.5 25q40 0 68 -28.5t28 -68.5q0 -36 -24 -63
t-59 -32l-1 -1q-2 -5 -2 -11q0 -36 63 -56q11 -2 12 -16q-2 -13 -21 -11q-72 17 -117.5 64.5t-45.5 107.5q0 14 3 29z" />
    <glyph glyph-name="quotedblright" unicode="&#x201d;" horiz-adv-x="433" 
d="M174 720q-4 36 -31 61t-65 25q-39 0 -67.5 -28.5t-28.5 -68.5q0 -36 24 -63t60 -32v-1q2 -5 2 -11q0 -36 -63 -56q-10 -2 -11 -16q1 -13 20 -11q72 17 117.5 64.5t45.5 107.5q0 14 -3 29zM420 720q-4 36 -31.5 61t-64.5 25q-40 0 -68 -28.5t-28 -68.5q0 -36 24 -63
t59 -32q1 0 1 -1q2 -5 2 -11q0 -36 -63 -56q-11 -2 -11 -16q1 -13 20 -11q72 17 117.5 64.5t45.5 107.5q0 14 -3 29z" />
    <glyph glyph-name="quotedblbase" unicode="&#x201e;" horiz-adv-x="529" 
d="M182 598q-4 37 -31 61.5t-65 24.5q-39 0 -67.5 -28t-28.5 -68q0 -36 24 -63.5t60 -31.5v-1q2 -5 2 -12q0 -36 -63 -55q-10 -2 -11 -16q1 -14 20 -12q72 18 117.5 65.5t45.5 107.5q0 14 -3 28zM428 598q-4 37 -31.5 61.5t-64.5 24.5q-40 0 -68 -28t-28 -68q0 -36 24 -63.5
t59 -31.5l1 -1q2 -5 2 -12q0 -36 -63 -55q-11 -2 -11 -16q1 -14 20 -12q72 18 117.5 65.5t45.5 107.5q0 14 -3 28z" />
    <glyph glyph-name="dagger" unicode="&#x2020;" horiz-adv-x="244" 
d="M239 515q-5 -25 -24 -32q-9 -3 -39 -3h-28l3 69q1 30 3 36q4 24 21 27q2 1 2 2t-1 1h-112q-1 0 -1 -1t1 -2q25 -4 32 -24q3 -7 3 -39l2 -69h-29q-59 0 -64 24q0 1 -1 1q-1 1 -2 -1v-112q1 -1 2 -1t1 2q5 25 24 32q10 3 40 3h31l11 -411h16l16 411h30q59 0 63 -24
q0 -2 2 -2q1 0 1 1v112q0 1 -1 1q-2 0 -2 -1z" />
    <glyph glyph-name="daggerdbl" unicode="&#x2021;" 
 />
    <glyph glyph-name="bullet" unicode="&#x2022;" horiz-adv-x="216" 
d="M223 363q0 -49 -34.5 -83.5t-83.5 -34.5t-82.5 34t-33.5 84q0 49 33.5 83.5t82.5 34.5t83.5 -34.5t34.5 -83.5z" />
    <glyph glyph-name="ellipsis" unicode="&#x2026;" horiz-adv-x="739" 
d="M679 84q0 -35 -24.5 -59.5t-59.5 -24.5t-59.5 24.5t-24.5 59.5t24.5 59.5t59.5 24.5t59.5 -24.5t24.5 -59.5zM423 84q0 -35 -24.5 -59.5t-59.5 -24.5t-59.5 24.5t-24.5 59.5t24.5 59.5t59.5 24.5t59.5 -24.5t24.5 -59.5zM143 84q0 -35 -24.5 -59.5t-59.5 -24.5
t-59.5 24.5t-24.5 59.5t24.5 59.5t59.5 24.5t59.5 -24.5t24.5 -59.5z" />
    <glyph glyph-name="perthousand" unicode="&#x2030;" horiz-adv-x="1279" 
d="M808 728q2 1 3 3l-59 47q-4 3 -15 3.5t-15 4.5v-1h-3q-133 -28 -268 -28q-117 0 -206 23q-39 11 -80 11q-104 0 -156 -55q-46 -48 -46 -131q0 -184 202 -184q203 0 203 185q0 61 -26 104q32 -3 66 -3q124 0 257 41q-8 -9 -17 -21q-2 -3 -497 -620q-46 -56 -78 -56
q-9 0 -18 3q-2 -1 -3 -3l59 -47q10 -8 23 -8q34 0 81 59q2 3 498 620q45 56 77 56q9 0 18 -3zM197 446q-10 -3 -19 -3q-55 0 -86 73q-23 56 -23 121q0 128 84 128q39 0 69 -40t37 -102q3 -24 3 -46q0 -113 -65 -131zM1117 369q-104 0 -157 -54q-46 -48 -46 -130
q0 -185 203 -185t203 185q0 82 -46 130q-53 54 -157 54zM1149 26q-10 -3 -20 -3q-54 0 -84 72q-23 56 -23 121q0 127 83 127q38 0 67.5 -40t37.5 -101q2 -24 2 -46q0 -112 -63 -130zM1117 369q-104 0 -157 -54q-46 -48 -46 -130q0 -185 203 -185t203 185q0 82 -46 130
q-53 54 -157 54zM1149 26q-10 -3 -20 -3q-54 0 -84 72q-23 56 -23 121q0 127 83 127q38 0 67.5 -40t37.5 -101q2 -24 2 -46q0 -112 -63 -130zM1117 369q-104 0 -157 -54q-46 -48 -46 -130q0 -185 203 -185t203 185q0 82 -46 130q-53 54 -157 54zM1149 26q-10 -3 -20 -3
q-54 0 -84 72q-23 56 -23 121q0 127 83 127q38 0 67.5 -40t37.5 -101q2 -24 2 -46q0 -112 -63 -130zM629 354q-104 0 -157 -54q-46 -48 -46 -131q0 -184 203 -184t203 184q0 83 -46 131q-53 54 -157 54zM661 11q-10 -3 -20 -3q-54 0 -84 72q-23 55 -23 120q0 127 83 127
q38 0 68 -40t37 -101q2 -23 2 -45q0 -113 -63 -130zM629 354q-104 0 -157 -54q-46 -48 -46 -131q0 -184 203 -184t203 184q0 83 -46 131q-53 54 -157 54zM661 11q-10 -3 -20 -3q-54 0 -84 72q-23 55 -23 120q0 127 83 127q38 0 68 -40t37 -101q2 -23 2 -45q0 -113 -63 -130z
M629 354q-104 0 -157 -54q-46 -48 -46 -131q0 -184 203 -184t203 184q0 83 -46 131q-53 54 -157 54zM661 11q-10 -3 -20 -3q-54 0 -84 72q-23 55 -23 120q0 127 83 127q38 0 68 -40t37 -101q2 -23 2 -45q0 -113 -63 -130z" />
    <glyph glyph-name="guilsinglleft" unicode="&#x2039;" horiz-adv-x="270" 
d="M153 600q-67 71 -141 152q-6 9 -7 22q0 11 6 20q31 37 129 162q8 13 22 5q15 -7 6 -21q-30 -67 -74 -164q23 -43 86 -158q9 -13 -5 -22q-14 -8 -22 4zM153 600q-67 71 -141 152q-6 9 -7 22q0 11 6 20q31 37 129 162q8 13 22 5q15 -7 6 -21q-30 -67 -74 -164
q23 -43 86 -158q9 -13 -5 -22q-14 -8 -22 4zM153 600q-67 71 -141 152q-6 9 -7 22q0 11 6 20q31 37 129 162q8 13 22 5q15 -7 6 -21q-30 -67 -74 -164q23 -43 86 -158q9 -13 -5 -22q-14 -8 -22 4zM153 600q-67 71 -141 152q-6 9 -7 22q0 11 6 20q31 37 129 162q8 13 22 5
q15 -7 6 -21q-30 -67 -74 -164q23 -43 86 -158q9 -13 -5 -22q-14 -8 -22 4z" />
    <glyph glyph-name="guilsinglright" unicode="&#x203a;" horiz-adv-x="336" 
d="M71 600q67 71 141 152q6 9 7 22q0 11 -6 20q-31 37 -129 162q-8 13 -22 5q-15 -7 -6 -21q30 -67 74 -164q-23 -43 -86 -158q-9 -13 5 -22q14 -8 22 4zM71 600q67 71 141 152q6 9 7 22q0 11 -6 20q-31 37 -129 162q-8 13 -22 5q-15 -7 -6 -21q30 -67 74 -164
q-23 -43 -86 -158q-9 -13 5 -22q14 -8 22 4zM71 600q67 71 141 152q6 9 7 22q0 11 -6 20q-31 37 -129 162q-8 13 -22 5q-15 -7 -6 -21q30 -67 74 -164q-23 -43 -86 -158q-9 -13 5 -22q14 -8 22 4zM71 600q67 71 141 152q6 9 7 22q0 11 -6 20q-31 37 -129 162q-8 13 -22 5
q-15 -7 -6 -21q30 -67 74 -164q-23 -43 -86 -158q-9 -13 5 -22q14 -8 22 4z" />
    <glyph glyph-name="trademark" unicode="&#x2122;" horiz-adv-x="501" 
d="M388 636q-18 4 -22 17q-2 7 -2 28v73q0 41 16 44q4 1 0 3h-54l-53 -112l-57 111v0h-64q-2 -1 1 -2q17 -3 22 -17q2 -6 2 -27v-73q0 -41 -17 -45q-4 0 0 -2h64q3 2 0 2q-18 4 -22 17q-2 6 -2 28v81l66 -127v0l62 127v-81q0 -41 -17 -45q-3 0 0 -2h77q3 2 0 2zM12 800
q-6 0 -14 -2v0q-3 -2 -3 -4v-33q0 -3 3 -2q8 26 33 28l19 1v-107q0 -41 -17 -45q-4 0 0 -2h77q2 2 -1 2q-17 4 -22 17q-2 7 -2 28v107l18 -1q25 -2 33 -28q2 -1 3 2v33q0 2 -3 4v0q-8 2 -14 2h-110z" />
    <glyph glyph-name="partialdiff" unicode="&#x2202;" 
 />
    <glyph glyph-name="product" unicode="&#x220f;" 
 />
    <glyph glyph-name="summation" unicode="&#x2211;" horiz-adv-x="816" 
d="M442 467l-92 268h160q148 -25 182 -136q12 -4 14 8l-23 160q0 11 -12 17v0q-51 14 -134 14l-494 -1q-4 -1 -4 -5t5 -5q85 -16 131 -81q24 -34 60 -132l74 -204l-73 -146q-33 -88 -52 -121q-46 -81 -104 -92q-5 -1 -5 -5t4 -5h636v180q-1 5 -5 4q-4 0 -5 -5
q-16 -85 -81 -107q-31 -11 -132 -11h-220q-8 12 -8 27q0 22 22 64q27 53 33 71z" />
    <glyph glyph-name="minus" unicode="&#x2212;" horiz-adv-x="824" 
d="M51 368zM762 278q41 0 44 -17q1 -3 2 0v153q-1 3 -2 0q-3 -18 -16 -22q-7 -2 -28 -2h-658q-41 0 -44 16q0 4 -2 1v-154q2 -2 2 1q4 17 17 22q6 2 27 2h658z" />
    <glyph glyph-name="fraction" unicode="&#x2215;" 
 />
    <glyph glyph-name="radical" unicode="&#x221a;" 
 />
    <glyph glyph-name="infinity" unicode="&#x221e;" 
 />
    <glyph glyph-name="integral" unicode="&#x222b;" 
 />
    <glyph glyph-name="approxequal" unicode="&#x2248;" horiz-adv-x="752" 
d="M608 1160q-11 12 -26 12q-14 0 -24 -10t-10 -24t10 -24.5t24 -9.5h9q15 -15 15 -33q0 -20 -15.5 -33.5t-40.5 -13.5q-20 0 -42 10l-252 115q-38 17 -72 17q-53 0 -86 -37t-33 -86q0 -47 31 -78q10 -9 24 -9t24 9.5t10 23.5t-10 24t-24 10q-4 0 -9 -1q-13 15 -13 33
q0 19 15 33t40 14q20 0 42 -10l252 -116q38 -17 72 -17q53 0 88 40q32 36 32 84q0 47 -31 77zM608 887q-11 12 -26 12q-14 0 -24 -10t-10 -24t10 -24.5t24 -9.5q2 0 9 1q15 -16 15 -34q0 -20 -15.5 -33.5t-40.5 -13.5q-20 0 -42 10l-252 115q-38 18 -72 18q-53 0 -86 -37.5
t-33 -86.5q0 -47 31 -78q10 -9 24 -9t24 9.5t10 23.5t-10 24t-24 10q-4 0 -9 -1q-13 15 -13 33q0 20 15 33.5t40 13.5q20 0 42 -10l252 -115q38 -17 72 -17q53 0 88 39q32 36 32 84q0 47 -31 77z" />
    <glyph glyph-name="approxequal" unicode="&#x22f2;" horiz-adv-x="752" 
d="M608 1160q-11 12 -26 12q-14 0 -24 -10t-10 -24t10 -24.5t24 -9.5h9q15 -15 15 -33q0 -20 -15.5 -33.5t-40.5 -13.5q-20 0 -42 10l-252 115q-38 17 -72 17q-53 0 -86 -37t-33 -86q0 -47 31 -78q10 -9 24 -9t24 9.5t10 23.5t-10 24t-24 10q-4 0 -9 -1q-13 15 -13 33
q0 19 15 33t40 14q20 0 42 -10l252 -116q38 -17 72 -17q53 0 88 40q32 36 32 84q0 47 -31 77zM608 887q-11 12 -26 12q-14 0 -24 -10t-10 -24t10 -24.5t24 -9.5q2 0 9 1q15 -16 15 -34q0 -20 -15.5 -33.5t-40.5 -13.5q-20 0 -42 10l-252 115q-38 18 -72 18q-53 0 -86 -37.5
t-33 -86.5q0 -47 31 -78q10 -9 24 -9t24 9.5t10 23.5t-10 24t-24 10q-4 0 -9 -1q-13 15 -13 33q0 20 15 33.5t40 13.5q20 0 42 -10l252 -115q38 -17 72 -17q53 0 88 39q32 36 32 84q0 47 -31 77z" />
    <glyph glyph-name="notequal" unicode="&#x2260;" horiz-adv-x="518" 
d="M395 478q24 0 25 -10q1 -1 2 0v89q-1 1 -2 0q-2 -14 -25 -14h-37l11 9q13 12 20 12q3 0 5 -2h1l-58 67q-1 0 -1 -1q3 -5 3 -9q0 -7 -13 -18l-66 -58h-248q-23 0 -25 10q-1 1 -1 0v-89q0 -2 1 0q3 14 25 14h174l-78 -68h-96q-23 0 -25 10q-1 1 -1 0v-89q0 -1 1 0
q3 14 25 14h22q-14 -12 -21 -6h-1l59 -67h1q-3 6 -3 10q0 7 12 18l52 45h262q24 0 25 -10q1 -1 2 0v89q-1 2 -2 0q-2 -14 -25 -14h-188l77 68h111z" />
    <glyph glyph-name="lessequal" unicode="&#x2264;" horiz-adv-x="307" 
d="M18 274q-2 0 -14 -5v46q0 1 1 0q1 -7 13 -7h159q2 0 14 5v-46q-1 -1 -1 0q-1 7 -13 7h-159zM45 448q72 -49 127 -53q23 0 17 1v-65q0 -1 -1 -1t-1 1q-4 21 -16 24q-23 6 -48 18q-60 27 -116 76q83 72 164 94q12 3 16 23q0 2 1 2t1 -1v-65q6 1 -17 1q-15 -1 -32 -7
q-43 -14 -95 -48z" />
    <glyph glyph-name="greaterequal" unicode="&#x2265;" horiz-adv-x="184" 
d="M167 274q2 0 14 -5v46q-1 1 -1 0q-1 -7 -13 -7h-159q-2 0 -14 5v-46q0 -1 1 0q1 7 13 7h159zM140 448q-72 -49 -127 -53q-24 0 -17 1v-65q0 -1 1 -1t1 1q4 21 16 24q23 6 48 18q60 27 116 76q-84 72 -164 94q-12 3 -16 23q0 2 -1 2t-1 -1v-65q-6 1 17 1q14 -1 32 -7
q42 -14 95 -48z" />
    <glyph glyph-name="lozenge" unicode="&#x25ca;" 
 />
    <glyph glyph-name="fi" unicode="&#xfb01;" 
 />
    <glyph glyph-name="fl" unicode="&#xfb02;" 
 />
    <glyph glyph-name=".null" 
 />
    <glyph glyph-name="HT" 
 />
    <glyph glyph-name="LF" 
 />
    <glyph glyph-name="nonmarkingreturn" 
 />
    <glyph glyph-name="DLE" 
 />
    <glyph glyph-name="DC1" 
 />
    <glyph glyph-name="DC2" 
 />
    <glyph glyph-name="DC3" 
 />
    <glyph glyph-name="DC4" 
 />
    <glyph glyph-name="RS" 
 />
    <glyph glyph-name="US" 
 />
    <glyph glyph-name="DEL" 
 />
    <glyph glyph-name="apple" horiz-adv-x="1829" 
d="M1041 800h-312q-5 -1 -5 -5t6 -5q77 -18 104 -80q17 -36 25 -131l26 -291q0 -3 -496 417q-29 25 -29 48q0 15 12 24.5t28 12.5q5 1 5 5t-4 5h-313q-4 -1 -4 -5t5 -5q86 -16 108 -82q11 -31 11 -133v-353q0 -86 -7 -122q-17 -82 -75 -93q-5 -1 -5 -5q-1 -4 4 -4h312
q5 0 5 4t-6 5q-59 12 -87 46q-21 26 -29 76q-6 46 -13 92l-22 334l662 -572q9 -6 11 1v591q0 87 7 122q17 82 75 93q5 1 5 5q1 4 -4 5zM1382 720q-158 0 -238 -88q-70 -79 -70 -213q0 -137 67 -213q79 -89 241 -89t240 89q68 76 68 213q0 134 -71 213q-79 88 -237 88z
M1444 171q-16 -6 -33 -6q-55 0 -100 69q-42 63 -57 153q-10 57 -10 105q0 165 105 172q54 3 100 -56.5t62 -154.5q10 -58 10 -108q0 -144 -77 -174zM1624 -23q32 0 34 -13q1 -2 2 -1v119q-1 2 -2 0q-3 -19 -34 -19h-509q-32 0 -34 13q-1 2 -2 0v-118q1 -2 2 0q3 19 34 19
h509z" />
    <glyph glyph-name="glyph259" horiz-adv-x="624" 
d="M485 982l-35 38q-1 0 -1 -1q8 -14 3 -22q-8 -14 -34 -27q-1 3 -3 4q7 14 16 53q2 10 -4 13.5t-11 2.5l-46 -24l1 -1q29 8 38 -42q-3 -1 -4 -3q-8 7 -26 19q-21 14 -29 14q-12 0 -11 -13l9 -51q2 -1 2 1q0 30 52 25v0q1 -2 1 -4q-14 -7 -45 -34q-5 -5 -5 -10q0 -9 8 -12
l51 -8q3 1 0 2q-15 5 -16 15q-2 17 11 43q1 0 3 -1q3 -16 20 -53q4 -9 12 -9q6 1 9 6l23 46q0 2 -1 0q-10 -12 -20 -11q-16 3 -37 23q1 1 2 3q15 -3 56 -1q10 1 12 8q2 6 -1 11zM670 983l-35 38q-1 0 -1 -2q8 -13 3 -21q-8 -14 -34 -27q-1 3 -3 4q7 13 16 53q2 9 -4 13
t-11 2l-46 -23q0 -1 1 -1q29 8 38 -43q-3 0 -4 -2q-8 7 -26 19q-21 13 -29 13q-12 0 -11 -12l9 -51q2 -1 2 1q0 30 52 24v0q1 -2 1 -3q-14 -7 -45 -35q-5 -4 -5 -9q0 -9 8 -12l51 -8q3 1 0 2q-15 5 -16 15q-2 17 11 43q1 -1 3 -1q3 -16 20 -54q4 -8 12 -8q6 1 9 6l23 46
q0 2 -1 0q-10 -12 -20 -11q-16 3 -37 23q1 1 2 3q15 -3 56 -1q10 1 12 8q2 6 -1 11z" />
    </font>
</defs>
</svg>
